<svg width="20" height="18" viewBox="0 0 20 18" fill="none" xmlns="http://www.w3.org/2000/svg">
<path d="M3.06344 12.9541C2.47416 12.5814 1.98111 12.075 1.62434 11.4759C1.26757 10.8769 1.05714 10.2021 1.01016 9.50649C0.971138 8.92603 1.04684 8.34356 1.23293 7.79236C1.41903 7.24115 1.71188 6.732 2.09476 6.29398C2.47764 5.85596 2.94306 5.49765 3.46442 5.23951C3.98579 4.98137 4.5529 4.82846 5.13336 4.7895C5.19353 4.7911 5.25289 4.7755 5.3045 4.74453C5.3561 4.71357 5.39781 4.66853 5.42471 4.61469C5.8253 3.45474 6.61137 2.46713 7.65187 1.81649C8.69236 1.16585 9.92444 0.89149 11.1427 1.03915C12.361 1.18681 13.4918 1.74756 14.3468 2.62793C15.2017 3.50831 15.7291 4.65511 15.8409 5.87718C15.8504 5.94148 15.878 6.00176 15.9205 6.05091C15.963 6.10006 16.0187 6.13605 16.0809 6.15465C16.8357 6.3324 17.5177 6.73751 18.0348 7.31526C18.5519 7.89301 18.8793 8.61556 18.9726 9.38531C19.066 10.1551 18.9208 10.9349 18.5568 11.6195C18.1927 12.3041 17.6273 12.8605 16.9369 13.2135" stroke="#246BEB" stroke-width="1.5" stroke-linecap="square" stroke-linejoin="round"/>
<path d="M11.5372 10.0185L8.46002 11.5571" stroke="#246BEB" stroke-width="1.5" stroke-linecap="square" stroke-linejoin="round"/>
<path d="M11.3873 9.39962C11.3873 9.76757 11.5335 10.1204 11.7937 10.3806C12.0539 10.6408 12.4067 10.787 12.7747 10.787C13.1426 10.787 13.4955 10.6408 13.7557 10.3806C14.0159 10.1204 14.162 9.76757 14.162 9.39962C14.162 9.03167 14.0159 8.67879 13.7557 8.41861C13.4955 8.15844 13.1426 8.01227 12.7747 8.01227C12.4067 8.01227 12.0539 8.15844 11.7937 8.41861C11.5335 8.67879 11.3873 9.03167 11.3873 9.39962Z" stroke="#246BEB" stroke-width="1.5" stroke-linecap="square" stroke-linejoin="round"/>
<path d="M5.8385 12.1744C5.8385 12.5424 5.98467 12.8953 6.24485 13.1554C6.50503 13.4156 6.8579 13.5618 7.22585 13.5618C7.5938 13.5618 7.94668 13.4156 8.20686 13.1554C8.46703 12.8953 8.6132 12.5424 8.6132 12.1744C8.6132 11.8065 8.46703 11.4536 8.20686 11.1934C7.94668 10.9332 7.5938 10.7871 7.22585 10.7871C6.8579 10.7871 6.50503 10.9332 6.24485 11.1934C5.98467 11.4536 5.8385 11.8065 5.8385 12.1744Z" stroke="#246BEB" stroke-width="1.5" stroke-linecap="square" stroke-linejoin="round"/>
<path d="M11.3873 14.9492C11.3873 15.3172 11.5335 15.6701 11.7937 15.9302C12.0539 16.1904 12.4067 16.3366 12.7747 16.3366C13.1426 16.3366 13.4955 16.1904 13.7557 15.9302C14.0159 15.6701 14.162 15.3172 14.162 14.9492C14.162 14.5813 14.0159 14.2284 13.7557 13.9682C13.4955 13.7081 13.1426 13.5619 12.7747 13.5619C12.4067 13.5619 12.0539 13.7081 11.7937 13.9682C11.5335 14.2284 11.3873 14.5813 11.3873 14.9492Z" stroke="#246BEB" stroke-width="1.5" stroke-linecap="square" stroke-linejoin="round"/>
<path d="M8.46002 12.7917L11.5372 14.3303" stroke="#246BEB" stroke-width="1.5" stroke-linecap="square" stroke-linejoin="round"/>
</svg>
