<svg width="24" height="24" viewBox="0 0 24 24" fill="none" xmlns="http://www.w3.org/2000/svg">
<path d="M22.25 12C22.25 13.346 21.9849 14.6789 21.4698 15.9225C20.9547 17.1661 20.1996 18.296 19.2478 19.2478C18.296 20.1996 17.1661 20.9547 15.9225 21.4698C14.6789 21.9849 13.346 22.25 12 22.25C10.654 22.25 9.32108 21.9849 8.07749 21.4698C6.83391 20.9547 5.70396 20.1996 4.75216 19.2478C3.80035 18.296 3.04535 17.1661 2.53023 15.9225C2.01512 14.6789 1.75 13.346 1.75 12C1.75 9.28153 2.82991 6.6744 4.75216 4.75216C6.6744 2.82991 9.28153 1.75 12 1.75C14.7185 1.75 17.3256 2.82991 19.2478 4.75216C21.1701 6.6744 22.25 9.28153 22.25 12Z" stroke="#008A1E" stroke-width="1.5" stroke-linecap="round" stroke-linejoin="round"/>
<path d="M17.6667 8L10.5556 16L7 13.3333" stroke="#008A1E" stroke-width="1.5" stroke-linecap="round" stroke-linejoin="round"/>
</svg>
