<svg width="24" height="24" viewBox="0 0 24 24" fill="none" xmlns="http://www.w3.org/2000/svg">
<path d="M5.06325 15.9539C4.47398 15.5812 3.98093 15.0748 3.62416 14.4758C3.26739 13.8767 3.05696 13.202 3.00998 12.5063C2.97095 11.9259 3.04665 11.3434 3.23275 10.7922C3.41885 10.241 3.7117 9.73185 4.09458 9.29383C4.47746 8.85581 4.94287 8.4975 5.46424 8.23936C5.98561 7.98122 6.55271 7.8283 7.13318 7.78935C7.19334 7.79094 7.25271 7.77534 7.30432 7.74438C7.35592 7.71342 7.39762 7.66837 7.42452 7.61454C7.82512 6.45459 8.61118 5.46697 9.65168 4.81633C10.6922 4.16569 11.9243 3.89134 13.1425 4.039C14.3608 4.18666 15.4916 4.74741 16.3466 5.62778C17.2015 6.50816 17.7289 7.65496 17.8408 8.87703C17.8502 8.94133 17.8778 9.0016 17.9203 9.05076C17.9628 9.09991 18.0185 9.1359 18.0808 9.1545C18.8355 9.33225 19.5175 9.73736 20.0346 10.3151C20.5518 10.8929 20.8791 11.6154 20.9725 12.3852C21.0658 13.1549 20.9206 13.9348 20.5566 14.6194C20.1925 15.304 19.6271 15.8603 18.9368 16.2133" stroke="white" stroke-width="1.5" stroke-linecap="square" stroke-linejoin="round"/>
<path d="M13.5371 13.0186L10.46 14.5571" stroke="white" stroke-width="1.5" stroke-linecap="square" stroke-linejoin="round"/>
<path d="M13.3872 12.3996C13.3872 12.7675 13.5334 13.1204 13.7936 13.3806C14.0537 13.6407 14.4066 13.7869 14.7746 13.7869C15.1425 13.7869 15.4954 13.6407 15.7556 13.3806C16.0157 13.1204 16.1619 12.7675 16.1619 12.3996C16.1619 12.0316 16.0157 11.6787 15.7556 11.4186C15.4954 11.1584 15.1425 11.0122 14.7746 11.0122C14.4066 11.0122 14.0537 11.1584 13.7936 11.4186C13.5334 11.6787 13.3872 12.0316 13.3872 12.3996Z" stroke="white" stroke-width="1.5" stroke-linecap="square" stroke-linejoin="round"/>
<path d="M7.83838 15.1745C7.83838 15.5424 7.98455 15.8953 8.24472 16.1555C8.5049 16.4156 8.85778 16.5618 9.22573 16.5618C9.59368 16.5618 9.94655 16.4156 10.2067 16.1555C10.4669 15.8953 10.6131 15.5424 10.6131 15.1745C10.6131 14.8065 10.4669 14.4536 10.2067 14.1935C9.94655 13.9333 9.59368 13.7871 9.22573 13.7871C8.85778 13.7871 8.5049 13.9333 8.24472 14.1935C7.98455 14.4536 7.83838 14.8065 7.83838 15.1745Z" stroke="white" stroke-width="1.5" stroke-linecap="square" stroke-linejoin="round"/>
<path d="M13.3872 17.9489C13.3872 18.3168 13.5334 18.6697 13.7936 18.9299C14.0537 19.1901 14.4066 19.3362 14.7746 19.3362C15.1425 19.3362 15.4954 19.1901 15.7556 18.9299C16.0157 18.6697 16.1619 18.3168 16.1619 17.9489C16.1619 17.5809 16.0157 17.228 15.7556 16.9679C15.4954 16.7077 15.1425 16.5615 14.7746 16.5615C14.4066 16.5615 14.0537 16.7077 13.7936 16.9679C13.5334 17.228 13.3872 17.5809 13.3872 17.9489Z" stroke="white" stroke-width="1.5" stroke-linecap="square" stroke-linejoin="round"/>
<path d="M10.46 15.7915L13.5371 17.3301" stroke="white" stroke-width="1.5" stroke-linecap="square" stroke-linejoin="round"/>
</svg>
