<svg width="20" height="20" viewBox="0 0 20 20" fill="none" xmlns="http://www.w3.org/2000/svg">
<path d="M8.60681 4.42664L10.6466 2.38686C11.5754 1.48769 12.8205 0.989637 14.1133 1.00013C15.406 1.01063 16.6428 1.52883 17.557 2.44296C18.4711 3.3571 18.9893 4.59391 18.9998 5.88665C19.0103 7.1794 18.5122 8.42446 17.6131 9.35332L15.5733 11.3931" stroke="#246BEB" stroke-width="1.5" stroke-linecap="square" stroke-linejoin="round"/>
<path d="M11.3931 15.5728L9.35335 17.6126C8.42449 18.5117 7.17943 19.0098 5.88669 18.9993C4.59394 18.9888 3.35713 18.4706 2.44299 17.5565C1.52886 16.6423 1.01066 15.4055 1.00016 14.1128C0.989667 12.82 1.48772 11.575 2.38689 10.6461L4.42667 8.60632" stroke="#246BEB" stroke-width="1.5" stroke-linecap="square" stroke-linejoin="round"/>
<path d="M12.7861 7.21329L7.21289 12.7865" stroke="#246BEB" stroke-width="1.5" stroke-linecap="square" stroke-linejoin="round"/>
</svg>
