<svg width="25" height="25" viewBox="0 0 25 25" fill="none" xmlns="http://www.w3.org/2000/svg">
<path d="M11.2736 6.79679L13.3133 4.75701C14.2422 3.85783 15.4873 3.35978 16.78 3.37028C18.0727 3.38077 19.3096 3.89897 20.2237 4.81311C21.1378 5.72724 21.656 6.96406 21.6665 8.2568C21.677 9.54954 21.179 10.7946 20.2798 11.7235L18.24 13.7632" stroke="white" stroke-width="1.5" stroke-linecap="square" stroke-linejoin="round"/>
<path d="M14.0599 17.943L12.0201 19.9828C11.0912 20.882 9.84617 21.38 8.55343 21.3695C7.26069 21.359 6.02388 20.8408 5.10974 19.9267C4.1956 19.0126 3.67741 17.7757 3.66691 16.483C3.65642 15.1903 4.15446 13.9452 5.05364 13.0163L7.09342 10.9766" stroke="white" stroke-width="1.5" stroke-linecap="square" stroke-linejoin="round"/>
<path d="M15.4528 9.5835L9.87964 15.1567" stroke="white" stroke-width="1.5" stroke-linecap="square" stroke-linejoin="round"/>
</svg>
