<svg width="25" height="25" viewBox="0 0 25 25" fill="none" xmlns="http://www.w3.org/2000/svg">
<path d="M5.66675 12.3701V4.37012M19.6667 20.3701V17.3701M5.66675 20.3701V16.3701M19.6667 13.3701V4.37012M12.6667 7.37012V4.37012M12.6667 20.3701V11.3701" stroke="white" stroke-width="1.5" stroke-linecap="square"/>
<path d="M5.66675 16.3701C6.77132 16.3701 7.66675 15.4747 7.66675 14.3701C7.66675 13.2655 6.77132 12.3701 5.66675 12.3701C4.56218 12.3701 3.66675 13.2655 3.66675 14.3701C3.66675 15.4747 4.56218 16.3701 5.66675 16.3701Z" stroke="white" stroke-width="1.5" stroke-linecap="square"/>
<path d="M12.6667 11.3701C13.7713 11.3701 14.6667 10.4747 14.6667 9.37012C14.6667 8.26555 13.7713 7.37012 12.6667 7.37012C11.5622 7.37012 10.6667 8.26555 10.6667 9.37012C10.6667 10.4747 11.5622 11.3701 12.6667 11.3701Z" stroke="white" stroke-width="1.5" stroke-linecap="square"/>
<path d="M19.6667 17.3701C20.7713 17.3701 21.6667 16.4747 21.6667 15.3701C21.6667 14.2655 20.7713 13.3701 19.6667 13.3701C18.5622 13.3701 17.6667 14.2655 17.6667 15.3701C17.6667 16.4747 18.5622 17.3701 19.6667 17.3701Z" stroke="white" stroke-width="1.5" stroke-linecap="square"/>
</svg>
