<svg width="25" height="25" viewBox="0 0 25 25" fill="none" xmlns="http://www.w3.org/2000/svg">
<path fill-rule="evenodd" clip-rule="evenodd" d="M14.0096 4.68639C13.582 2.93136 11.0845 2.93136 10.6569 4.68639C10.5931 4.95011 10.4679 5.19504 10.2916 5.40124C10.1152 5.60744 9.89264 5.76908 9.64199 5.87302C9.39135 5.97696 9.11971 6.02026 8.84917 5.99938C8.57864 5.97851 8.31685 5.89406 8.08512 5.7529C6.54157 4.81239 4.77527 6.57867 5.7158 8.12219C6.32331 9.11896 5.78442 10.4195 4.65039 10.6951C2.89421 11.1215 2.89421 13.6202 4.65039 14.0454C4.91418 14.1093 5.15916 14.2346 5.36536 14.4111C5.57156 14.5876 5.73316 14.8103 5.83701 15.0611C5.94085 15.3119 5.98399 15.5836 5.96293 15.8542C5.94187 16.1248 5.85719 16.3866 5.7158 16.6183C4.77527 18.1618 6.54157 19.9281 8.08512 18.9876C8.31681 18.8462 8.57862 18.7615 8.84923 18.7405C9.11983 18.7194 9.39159 18.7626 9.64237 18.8664C9.89315 18.9702 10.1159 19.1318 10.2924 19.338C10.4689 19.5442 10.5942 19.7892 10.6581 20.053C11.0845 21.8092 13.5832 21.8092 14.0084 20.053C14.0726 19.7893 14.198 19.5445 14.3745 19.3385C14.5511 19.1324 14.7737 18.9709 15.0244 18.8671C15.2751 18.7633 15.5468 18.7201 15.8173 18.7411C16.0879 18.762 16.3496 18.8465 16.5814 18.9876C18.1249 19.9281 19.8912 18.1618 18.9507 16.6183C18.8096 16.3866 18.7251 16.1248 18.7042 15.8543C18.6832 15.5837 18.7264 15.3121 18.8302 15.0614C18.934 14.8107 19.0955 14.588 19.3016 14.4115C19.5077 14.235 19.7525 14.1095 20.0161 14.0454C21.7723 13.619 21.7723 11.1204 20.0161 10.6951C19.7523 10.6312 19.5073 10.5059 19.3011 10.3294C19.0949 10.1529 18.9333 9.93019 18.8295 9.67942C18.7257 9.42864 18.6825 9.15689 18.7036 8.88629C18.7246 8.61568 18.8093 8.35388 18.9507 8.12219C19.8912 6.57867 18.1249 4.81239 16.5814 5.7529C16.3497 5.8943 16.0879 5.97897 15.8173 6.00004C15.5467 6.0211 15.2749 5.97795 15.0241 5.87411C14.7734 5.77027 14.5506 5.60867 14.3741 5.40247C14.1976 5.19627 14.0723 4.9513 14.0084 4.68751L14.0096 4.68639Z" stroke="white" stroke-width="2"/>
<path d="M14.3333 12.3701C14.3333 13.4747 13.4378 14.3701 12.3333 14.3701C11.2287 14.3701 10.3333 13.4747 10.3333 12.3701C10.3333 11.2655 11.2287 10.3701 12.3333 10.3701C13.4378 10.3701 14.3333 11.2655 14.3333 12.3701Z" stroke="white" stroke-width="2"/>
</svg>
