<svg width="18" height="18" viewBox="0 0 18 18" fill="none" xmlns="http://www.w3.org/2000/svg">
<path d="M9 2.25C7.66498 2.25 6.35993 2.64588 5.2499 3.38758C4.13987 4.12928 3.27471 5.18348 2.76382 6.41689C2.25292 7.65029 2.11925 9.00749 2.3797 10.3169C2.64015 11.6262 3.28303 12.829 4.22703 13.773C5.17104 14.717 6.37377 15.3598 7.68314 15.6203C8.99251 15.8807 10.3497 15.7471 11.5831 15.2362C12.8165 14.7253 13.8707 13.8601 14.6124 12.7501C15.3541 11.6401 15.75 10.335 15.75 9C15.75 7.20979 15.0388 5.4929 13.773 4.22703C12.5071 2.96116 10.7902 2.25 9 2.25ZM12.8205 11.862L11.8687 12.8137L9 9.95175L6.138 12.8205L5.1795 11.862L8.04825 9L5.1795 6.138L6.138 5.1795L9 8.04825L11.862 5.18625L12.8137 6.138L9.95175 9L12.8205 11.862Z" fill="#99B0CB"/>
</svg>
