<svg width="15" height="13" viewBox="0 0 15 13" fill="none" xmlns="http://www.w3.org/2000/svg">
<path d="M7.49983 9.69997L7.49983 7.43723M7.49983 7.43723L7.49983 5.17449M7.49983 7.43723L5.23709 7.43723M7.49983 7.43723L9.76257 7.43723M1.10045 10.1939L1.10051 4.11107C1.10052 3.50179 1.10029 2.63397 1.1001 2.00561C1.09996 1.56366 1.45818 1.20581 1.90013 1.20581H5.71227L7.55562 3.1749H13.0998C13.5416 3.1749 13.8998 3.53309 13.8998 3.97493L13.8996 10.194C13.8996 11.0777 13.1833 11.794 12.2996 11.794L2.70045 11.794C1.81679 11.794 1.10045 11.0776 1.10045 10.1939Z" stroke="#246BEB" stroke-linecap="square"/>
</svg>
