<svg width="19" height="20" viewBox="0 0 19 20" fill="none" xmlns="http://www.w3.org/2000/svg">
<path d="M9.10025 4.60009V7.30009C9.10025 7.79715 9.5032 8.20009 10.0003 8.20009H12.7003M14.5003 1.00009H8.20004C7.20593 1.00009 6.40005 1.80597 6.40004 2.80008V4.60009M14.5003 1.00009H15.0023C15.2558 1.00009 15.497 1.10684 15.6716 1.29055C15.934 1.56663 16.3497 1.9917 16.7503 2.35009C17.0642 2.63098 17.5574 3.13508 17.8527 3.44144C18.0125 3.60712 18.1003 3.82834 18.1002 4.05847L18.1002 4.60009M14.5003 1.00009V3.70009C14.5003 4.19715 14.9032 4.60009 15.4003 4.60009H18.1002M18.1002 4.60009L18.1 13.6001C18.1 14.5942 17.2941 15.4001 16.3 15.4001H12.7M11.3503 5.95009C10.9497 5.5917 10.534 5.16663 10.2716 4.89055C10.097 4.70684 9.85578 4.60009 9.60233 4.60009H2.80004C1.80593 4.60009 1.00005 5.40597 1.00004 6.40008L0.999969 17.2C0.999963 18.1942 1.80585 19.0001 2.79996 19.0001L10.9 19.0001C11.8941 19.0001 12.7 18.1942 12.7 17.2001L12.7002 7.65847C12.7003 7.42834 12.6125 7.20712 12.4527 7.04144C12.1574 6.73508 11.6642 6.23098 11.3503 5.95009Z" stroke="#246BEB" stroke-width="1.5" stroke-linecap="square" stroke-linejoin="round"/>
</svg>
