<svg width="15" height="12" viewBox="0 0 15 12" fill="none" xmlns="http://www.w3.org/2000/svg">
<path d="M7.50001 9.20022L7.50001 6.93747M7.50001 6.93747L7.50001 4.67473M7.50001 6.93747L5.23727 6.93747M7.50001 6.93747L9.76275 6.93747M1.10064 9.69419L1.1007 3.61132C1.1007 3.00204 1.10047 2.13422 1.10028 1.50585C1.10014 1.0639 1.45837 0.706055 1.90031 0.706055H5.71246L7.55581 2.67515H13.1C13.5418 2.67515 13.9 3.03333 13.9 3.47517L13.8998 9.69428C13.8998 10.5779 13.1834 11.2942 12.2998 11.2942L2.70063 11.2942C1.81697 11.2942 1.10063 10.5779 1.10064 9.69419Z" stroke="#246BEB" stroke-linecap="round"/>
</svg>
