<svg width="1370" height="778" viewBox="0 0 1370 778" fill="none" xmlns="http://www.w3.org/2000/svg">
<path d="M13 0.5C6.09644 0.5 0.5 6.09647 0.5 13V765C0.5 771.904 6.09648 777.5 13 777.5H1357C1363.9 777.5 1369.5 771.904 1369.5 765V13C1369.5 6.09644 1363.9 0.5 1357 0.5H13Z" fill="#424242"/>
<path d="M13 0.5C6.09644 0.5 0.5 6.09647 0.5 13V765C0.5 771.904 6.09648 777.5 13 777.5H1357C1363.9 777.5 1369.5 771.904 1369.5 765V13C1369.5 6.09644 1363.9 0.5 1357 0.5H13Z" stroke="#E5E6E8"/>
<path d="M52 46.4161C52 46.0467 52.188 45.7001 52.5046 45.486L60.3046 40.2112C60.7209 39.9296 61.2791 39.9296 61.6954 40.2112L69.4954 45.486C69.812 45.7001 70 46.0467 70 46.4161V56.2882C70 57.2336 69.1941 58 68.2 58H53.8C52.8059 58 52 57.2336 52 56.2882V46.4161Z" stroke="white" stroke-width="1.5"/>
<path d="M118 55.5H100M118 48.75H100M118 42H100" stroke="white" stroke-width="1.5" stroke-linecap="square"/>
<path d="M580.692 49.3846C580.31 49.3846 580 49.0747 580 48.6923C580 48.31 580.31 48 580.692 48" stroke="white" stroke-width="1.5" stroke-linecap="round" stroke-linejoin="round"/>
<path d="M580.692 49.3846C581.075 49.3846 581.385 49.0747 581.385 48.6923C581.385 48.31 581.075 48 580.692 48" stroke="white" stroke-width="1.5" stroke-linecap="round" stroke-linejoin="round"/>
<path d="M588.999 49.3846C588.617 49.3846 588.307 49.0747 588.307 48.6923C588.307 48.31 588.617 48 588.999 48" stroke="white" stroke-width="1.5" stroke-linecap="round" stroke-linejoin="round"/>
<path d="M588.999 49.3846C589.381 49.3846 589.691 49.0747 589.691 48.6923C589.691 48.31 589.381 48 588.999 48" stroke="white" stroke-width="1.5" stroke-linecap="round" stroke-linejoin="round"/>
<path d="M597.309 49.3846C596.926 49.3846 596.616 49.0747 596.616 48.6923C596.616 48.31 596.926 48 597.309 48" stroke="white" stroke-width="1.5" stroke-linecap="round" stroke-linejoin="round"/>
<path d="M597.309 49.3846C597.691 49.3846 598.001 49.0747 598.001 48.6923C598.001 48.31 597.691 48 597.309 48" stroke="white" stroke-width="1.5" stroke-linecap="round" stroke-linejoin="round"/>
<path d="M213 53L205 45L197 53" stroke="white" stroke-width="1.5" stroke-linecap="square" stroke-linejoin="round"/>
<path d="M245 45L253 53L261 45" stroke="white" stroke-width="1.5" stroke-linecap="square" stroke-linejoin="round"/>
<path d="M305 41L297 49L305 57" stroke="white" stroke-width="1.5" stroke-linecap="square" stroke-linejoin="round"/>
<path d="M345 57L353 49L345 41" stroke="white" stroke-width="1.5" stroke-linecap="square" stroke-linejoin="round"/>
<path d="M165 41L149 57" stroke="white" stroke-width="1.5" stroke-linecap="square" stroke-linejoin="round"/>
<path d="M149 41L165 57" stroke="white" stroke-width="1.5" stroke-linecap="square" stroke-linejoin="round"/>
<path d="M389.125 47.5L397 40M397 40L404.875 47.5M397 40L397 58" stroke="white" stroke-width="1.5" stroke-linecap="square" stroke-linejoin="round"/>
<path d="M452.875 50.5L445 58M445 58L437.125 50.5M445 58L445 40" stroke="white" stroke-width="1.5" stroke-linecap="square" stroke-linejoin="round"/>
<path d="M542.5 41.125L550 49M550 49L542.5 56.875M550 49L532 49" stroke="white" stroke-width="1.5" stroke-linecap="square" stroke-linejoin="round"/>
<path d="M491.5 56.875L484 49M484 49L491.5 41.125M484 49H502" stroke="white" stroke-width="1.5" stroke-linecap="square" stroke-linejoin="round"/>
<path d="M61 154C65.9706 154 70 149.971 70 145C70 140.029 65.9706 136 61 136C56.0294 136 52 140.029 52 145C52 149.971 56.0294 154 61 154Z" stroke="white" stroke-width="1.5" stroke-linecap="round" stroke-linejoin="round"/>
<path d="M59.5981 141.494L56.0917 145L59.5981 148.507" stroke="white" stroke-width="1.5" stroke-linecap="square" stroke-linejoin="round"/>
<path d="M57 145H66" stroke="white" stroke-width="1.5" stroke-linecap="square" stroke-linejoin="round"/>
<path d="M109 154C113.971 154 118 149.971 118 145C118 140.029 113.971 136 109 136C104.029 136 100 140.029 100 145C100 149.971 104.029 154 109 154Z" stroke="white" stroke-width="1.5" stroke-linecap="round" stroke-linejoin="round"/>
<path d="M110.402 148.506L113.909 145L110.402 141.493" stroke="white" stroke-width="1.5" stroke-linecap="square" stroke-linejoin="round"/>
<path d="M113 145H104" stroke="white" stroke-width="1.5" stroke-linecap="square" stroke-linejoin="round"/>
<path d="M155.615 151.231C159.821 151.231 163.231 147.821 163.231 143.615C163.231 139.41 159.821 136 155.615 136C151.41 136 148 139.41 148 143.615C148 147.821 151.41 151.231 155.615 151.231Z" stroke="white" stroke-width="1.5" stroke-linecap="round" stroke-linejoin="round"/>
<path d="M166 154L161.154 149.154" stroke="white" stroke-width="1.5" stroke-linecap="square" stroke-linejoin="round"/>
<path d="M247 138C247 136.895 247.895 136 249 136H258C259.105 136 260 136.895 260 138V152.883C260 153.315 259.489 153.544 259.167 153.256L253.5 148.194L247.833 153.256C247.511 153.544 247 153.315 247 152.883V138Z" stroke="white" stroke-width="1.5" stroke-linecap="round"/>
<path d="M310 145C310 146.182 309.767 147.352 309.315 148.444C308.863 149.536 308.2 150.528 307.364 151.364C306.528 152.2 305.536 152.863 304.444 153.315C303.352 153.767 302.182 154 301 154C299.818 154 298.648 153.767 297.556 153.315C296.464 152.863 295.472 152.2 294.636 151.364C293.8 150.528 293.137 149.536 292.685 148.444C292.233 147.352 292 146.182 292 145C292 142.613 292.948 140.324 294.636 138.636C296.324 136.948 298.613 136 301 136C303.387 136 305.676 136.948 307.364 138.636C309.052 140.324 310 142.613 310 145Z" stroke="white" stroke-width="1.5" stroke-linecap="round" stroke-linejoin="round"/>
<path d="M305 142.25L300.111 147.75L297.667 145.917" stroke="white" stroke-width="1.5" stroke-linecap="square" stroke-linejoin="round"/>
<path d="M341 140.154H357.2" stroke="white" stroke-width="1.5" stroke-linecap="square" stroke-linejoin="round"/>
<path d="M343.025 140.154H355.175V152.615C355.175 152.983 355.033 153.335 354.779 153.594C354.526 153.854 354.183 154 353.825 154H344.375C344.017 154 343.673 153.854 343.42 153.594C343.167 153.335 343.025 152.983 343.025 152.615V140.154Z" stroke="white" stroke-width="1.5" stroke-linecap="round"/>
<path d="M345.725 140.154V139.462C345.725 138.543 346.081 137.663 346.714 137.014C347.347 136.365 348.205 136 349.1 136C349.995 136 350.854 136.365 351.487 137.014C352.12 137.663 352.475 138.543 352.475 139.462V140.154" stroke="white" stroke-width="1.5" stroke-linecap="round" stroke-linejoin="round"/>
<path d="M347.075 144.31V149.85" stroke="white" stroke-width="1.5" stroke-linecap="square" stroke-linejoin="round"/>
<path d="M351.125 144.31V149.85" stroke="white" stroke-width="1.5" stroke-linecap="square" stroke-linejoin="round"/>
<path d="M395.616 154H398.385" stroke="white" stroke-width="1.5" stroke-linecap="square" stroke-linejoin="round"/>
<path d="M402.538 143.2C402.538 141.672 401.955 140.207 400.916 139.127C399.877 138.047 398.469 137.44 397 137.44C395.531 137.44 394.122 138.047 393.083 139.127C392.045 140.207 391.461 141.672 391.461 143.2V148.24C391.461 148.813 391.242 149.362 390.853 149.767C390.463 150.172 389.935 150.4 389.384 150.4H404.615C404.064 150.4 403.536 150.172 403.146 149.767C402.757 149.362 402.538 148.813 402.538 148.24V143.2Z" stroke="white" stroke-width="1.5" stroke-linecap="round"/>
<path d="M388 143.013C388.001 141.642 388.315 140.291 388.917 139.072C389.519 137.853 390.391 136.8 391.462 136" stroke="white" stroke-width="1.5" stroke-linecap="square" stroke-linejoin="round"/>
<path d="M406.001 143.013C406 141.642 405.686 140.291 405.084 139.072C404.482 137.853 403.61 136.8 402.539 136" stroke="white" stroke-width="1.5" stroke-linecap="square" stroke-linejoin="round"/>
<path d="M445 136V154" stroke="white" stroke-width="1.5" stroke-linecap="square" stroke-linejoin="round"/>
<path d="M436 144.944H454" stroke="white" stroke-width="1.5" stroke-linecap="square" stroke-linejoin="round"/>
<path d="M496.7 136V139.6M489.5 136V139.6M485 143.2H501.2M486.8 137.8H499.4C500.394 137.8 501.2 138.606 501.2 139.6V152.2C501.2 153.194 500.394 154 499.4 154H486.8C485.806 154 485 153.194 485 152.2V139.6C485 138.606 485.806 137.8 486.8 137.8Z" stroke="white" stroke-width="1.5" stroke-linecap="square"/>
<path d="M550 138L536.576 151.5L532 146.898" stroke="white" stroke-width="1.5" stroke-linecap="square" stroke-linejoin="round"/>
<path d="M733 154C737.971 154 742 149.971 742 145C742 140.029 737.971 136 733 136C728.029 136 724 140.029 724 145C724 149.971 728.029 154 733 154Z" stroke="white" stroke-width="1.5" stroke-linecap="round" stroke-linejoin="round"/>
<path d="M728.326 145.389C728.111 145.389 727.937 145.215 727.937 144.999C727.937 144.784 728.111 144.61 728.326 144.61" stroke="white" stroke-width="1.5" stroke-linecap="round" stroke-linejoin="round"/>
<path d="M728.326 145.389C728.541 145.389 728.716 145.215 728.716 144.999C728.716 144.784 728.541 144.61 728.326 144.61" stroke="white" stroke-width="1.5" stroke-linecap="round" stroke-linejoin="round"/>
<path d="M733 145.39C732.785 145.39 732.61 145.215 732.61 145C732.61 144.785 732.785 144.61 733 144.61" stroke="white" stroke-width="1.5" stroke-linecap="round" stroke-linejoin="round"/>
<path d="M733 145.39C733.215 145.39 733.39 145.215 733.39 145C733.39 144.785 733.215 144.61 733 144.61" stroke="white" stroke-width="1.5" stroke-linecap="round" stroke-linejoin="round"/>
<path d="M737.676 145.389C737.461 145.389 737.286 145.215 737.286 144.999C737.286 144.784 737.461 144.61 737.676 144.61" stroke="white" stroke-width="1.5" stroke-linecap="round" stroke-linejoin="round"/>
<path d="M737.676 145.389C737.891 145.389 738.065 145.215 738.065 144.999C738.065 144.784 737.891 144.61 737.676 144.61" stroke="white" stroke-width="1.5" stroke-linecap="round" stroke-linejoin="round"/>
<path d="M780 203C784.971 203 789 198.971 789 194C789 189.029 784.971 185 780 185C775.029 185 771 189.029 771 194C771 198.971 775.029 203 780 203Z" stroke="white" stroke-width="1.5" stroke-linecap="round" stroke-linejoin="round"/>
<path d="M786 200L774 188" stroke="white" stroke-width="1.5" stroke-linecap="square"/>
<path d="M822 145V137M836 153V150M822 153V149M836 146V137M829 140V137M829 153V144" stroke="white" stroke-width="1.5" stroke-linecap="square"/>
<path d="M822 149C823.105 149 824 148.105 824 147C824 145.895 823.105 145 822 145C820.895 145 820 145.895 820 147C820 148.105 820.895 149 822 149Z" stroke="white" stroke-width="1.5" stroke-linecap="square"/>
<path d="M829 144C830.105 144 831 143.105 831 142C831 140.895 830.105 140 829 140C827.895 140 827 140.895 827 142C827 143.105 827.895 144 829 144Z" stroke="white" stroke-width="1.5" stroke-linecap="square"/>
<path d="M836 150C837.105 150 838 149.105 838 148C838 146.895 837.105 146 836 146C834.895 146 834 146.895 834 148C834 149.105 834.895 150 836 150Z" stroke="white" stroke-width="1.5" stroke-linecap="square"/>
<path d="M592.182 141.818L589 145M589 145L585.818 148.182M589 145L592.182 148.182M589 145L585.818 141.818M598 145C598 149.971 593.971 154 589 154C584.029 154 580 149.971 580 145C580 140.029 584.029 136 589 136C593.971 136 598 140.029 598 145Z" stroke="white" stroke-width="1.5" stroke-linecap="square"/>
<path d="M637 145L637 149.5M637 141.665V141.625M628 145C628 140.029 632.029 136 637 136C641.971 136 646 140.029 646 145C646 149.971 641.971 154 637 154C632.029 154 628 149.971 628 145Z" stroke="white" stroke-width="1.5" stroke-linecap="square"/>
<path d="M676 145C676 140.029 680.029 136 685 136C689.971 136 694 140.029 694 145C694 149.971 689.971 154 685 154C680.029 154 676 149.971 676 145Z" fill="#D50136"/>
<path d="M685 141.538V146.393" stroke="white" stroke-width="1.5" stroke-linecap="square" stroke-linejoin="round"/>
<path d="M685 149L685 149.1" stroke="white" stroke-width="1.5" stroke-linecap="square" stroke-linejoin="round"/>
<path d="M773.671 141.469C775.142 138.797 777.893 137 781.044 137C784.616 137 787.674 139.311 788.937 142.586M777.256 142.586H773V138.117M788.329 148.531C786.858 151.203 784.107 153 780.956 153C777.384 153 774.326 150.689 773.063 147.414M784.744 147.414H789V151.883" stroke="white" stroke-width="1.5" stroke-linecap="square" stroke-linejoin="round"/>
<path d="M250.231 191.923C252.143 191.923 253.693 190.373 253.693 188.462C253.693 186.55 252.143 185 250.231 185C248.319 185 246.77 186.55 246.77 188.462C246.77 190.373 248.319 191.923 250.231 191.923Z" stroke="white" stroke-width="1.5" stroke-linecap="square" stroke-linejoin="round"/>
<path d="M244 201.616H256.462V200.865C256.451 199.81 256.172 198.774 255.653 197.856C255.133 196.937 254.389 196.165 253.49 195.612C252.591 195.059 251.567 194.742 250.513 194.693C250.419 194.688 250.325 194.686 250.231 194.686C250.137 194.686 250.043 194.688 249.949 194.693C248.895 194.742 247.87 195.059 246.971 195.612C246.073 196.165 245.329 196.937 244.809 197.856C244.289 198.774 244.011 199.81 244 200.865V201.616Z" stroke="white" stroke-width="1.5" stroke-linecap="square" stroke-linejoin="round"/>
<path d="M255.77 191.923C257.681 191.923 259.231 190.373 259.231 188.462C259.231 186.55 257.681 185 255.77 185" stroke="white" stroke-width="1.5" stroke-linecap="square" stroke-linejoin="round"/>
<path d="M259.231 201.615H262V200.865C261.989 199.809 261.711 198.774 261.191 197.855C260.671 196.937 259.927 196.165 259.028 195.612C258.447 195.254 257.814 194.995 257.154 194.844" stroke="white" stroke-width="1.5" stroke-linecap="square" stroke-linejoin="round"/>
<path d="M61.0001 194.385C62.9119 194.385 64.4617 192.835 64.4617 190.923C64.4617 189.011 62.9119 187.461 61.0001 187.461C59.0884 187.461 57.5386 189.011 57.5386 190.923C57.5386 192.835 59.0884 194.385 61.0001 194.385Z" stroke="white" stroke-width="1.5" stroke-linecap="round"/>
<path d="M55.0879 199.785C55.7058 198.77 56.5742 197.932 57.6096 197.351C58.645 196.769 59.8126 196.463 61.0002 196.463C62.1878 196.463 63.3554 196.769 64.3908 197.351C65.4263 197.932 66.2946 198.77 66.9125 199.785" stroke="white" stroke-width="1.5" stroke-linecap="round"/>
<path d="M61 202C65.9706 202 70 197.971 70 193C70 188.029 65.9706 184 61 184C56.0294 184 52 188.029 52 193C52 197.971 56.0294 202 61 202Z" stroke="white" stroke-width="1.5" stroke-linecap="round"/>
<path d="M305.76 194.384C304.529 194.384 303.531 193.386 303.531 192.155C303.531 190.924 304.529 189.926 305.76 189.926C306.991 189.926 307.989 190.924 307.989 192.155C307.989 193.386 306.991 194.384 305.76 194.384Z" stroke="white" stroke-width="1.5" stroke-linecap="round" stroke-linejoin="round"/>
<path d="M302.521 197.826C302.829 197.501 303.184 197.223 303.577 197.002C304.243 196.628 304.995 196.431 305.76 196.431C306.525 196.431 307.277 196.628 307.944 197.002C308.232 197.165 308.501 197.357 308.745 197.577" stroke="white" stroke-width="1.5" stroke-linecap="round" stroke-linejoin="round"/>
<path d="M298.548 193.669C297.022 193.669 295.785 192.432 295.785 190.907C295.785 189.381 297.022 188.144 298.548 188.144C300.073 188.144 301.31 189.381 301.31 190.907C301.31 192.432 300.073 193.669 298.548 193.669Z" stroke="white" stroke-width="1.5" stroke-linecap="round" stroke-linejoin="round"/>
<path d="M303.723 201.558C303.585 199.908 303.174 198.823 302.949 198.441C302.469 197.625 301.794 196.951 300.99 196.483C300.186 196.015 299.279 195.769 298.356 195.769C297.434 195.769 296.527 196.015 295.723 196.483C295.08 196.857 294.521 197.362 294.077 197.966L293.796 198.387" stroke="white" stroke-width="1.5" stroke-linecap="round" stroke-linejoin="round"/>
<path d="M301 202C296.029 202 292 197.971 292 193C292 188.029 296.029 184 301 184C305.971 184 310 188.029 310 193C310 197.971 305.971 202 301 202Z" stroke="white" stroke-width="1.5" stroke-linecap="round" stroke-linejoin="round"/>
<path d="M202.231 191.923C204.143 191.923 205.693 190.373 205.693 188.462C205.693 186.55 204.143 185 202.231 185C200.319 185 198.77 186.55 198.77 188.462C198.77 190.373 200.319 191.923 202.231 191.923Z" stroke="white" stroke-width="1.5" stroke-linecap="square" stroke-linejoin="round"/>
<path d="M204.308 201.616H196V200.865C196.011 199.81 196.289 198.774 196.809 197.856C197.329 196.937 198.073 196.165 198.971 195.612C199.87 195.059 200.895 194.742 201.949 194.693C202.043 194.688 202.137 194.686 202.231 194.686C202.325 194.686 202.419 194.688 202.513 194.693C203.567 194.742 204.591 195.059 205.49 195.612C206.007 195.93 206.473 196.32 206.874 196.769" stroke="white" stroke-width="1.5" stroke-linecap="square" stroke-linejoin="round"/>
<path d="M207.077 200.23H214" stroke="white" stroke-width="1.5" stroke-linecap="square" stroke-linejoin="round"/>
<path d="M154.231 190.923C156.143 190.923 157.693 189.373 157.693 187.462C157.693 185.55 156.143 184 154.231 184C152.319 184 150.77 185.55 150.77 187.462C150.77 189.373 152.319 190.923 154.231 190.923Z" stroke="white" stroke-width="1.5" stroke-linecap="square" stroke-linejoin="round"/>
<path d="M154.231 200.616H148V199.865C148.011 198.81 148.289 197.774 148.809 196.856C149.329 195.937 150.073 195.165 150.971 194.612C151.87 194.059 152.895 193.742 153.949 193.693C154.043 193.688 154.137 193.686 154.231 193.686C154.325 193.686 154.419 193.688 154.513 193.693C155.567 193.742 156.591 194.059 157.49 194.612C158.007 194.93 158.473 195.32 158.874 195.769" stroke="white" stroke-width="1.5" stroke-linecap="square" stroke-linejoin="round"/>
<path d="M166 195.077L160.462 202L157.692 199.923" stroke="white" stroke-width="1.5" stroke-linecap="square" stroke-linejoin="round"/>
<path d="M106.231 190.923C108.143 190.923 109.693 189.373 109.693 187.462C109.693 185.55 108.143 184 106.231 184C104.319 184 102.77 185.55 102.77 187.462C102.77 189.373 104.319 190.923 106.231 190.923Z" stroke="white" stroke-width="1.5" stroke-linecap="square" stroke-linejoin="round"/>
<path d="M108.308 200.616H100V199.865C100.011 198.81 100.289 197.774 100.809 196.856C101.329 195.937 102.073 195.165 102.971 194.612C103.87 194.059 104.895 193.742 105.949 193.693C107.003 193.643 108.053 193.861 109 194.326" stroke="white" stroke-width="1.5" stroke-linecap="square" stroke-linejoin="round"/>
<path d="M113.846 193.692V202" stroke="white" stroke-width="1.5" stroke-linecap="square" stroke-linejoin="round"/>
<path d="M109.692 197.846H118" stroke="white" stroke-width="1.5" stroke-linecap="square" stroke-linejoin="round"/>
<path d="M540.548 184.281C540.733 183.906 541.267 183.906 541.452 184.281L543.843 189.126C543.916 189.274 544.058 189.377 544.222 189.401L549.568 190.178C549.981 190.238 550.146 190.745 549.847 191.037L545.979 194.808C545.86 194.924 545.806 195.09 545.834 195.254L546.747 200.579C546.818 200.99 546.386 201.304 546.016 201.109L541.234 198.595C541.088 198.518 540.912 198.518 540.766 198.595L535.984 201.109C535.614 201.304 535.182 200.99 535.253 200.579L536.166 195.254C536.194 195.09 536.14 194.924 536.021 194.808L532.153 191.037C531.854 190.745 532.019 190.238 532.432 190.178L537.778 189.401C537.942 189.377 538.084 189.274 538.157 189.126L540.548 184.281Z" stroke="white" stroke-width="1.5"/>
<path d="M588.548 184.281C588.733 183.906 589.267 183.906 589.452 184.281L591.843 189.126C591.916 189.274 592.058 189.377 592.222 189.401L597.568 190.178C597.981 190.238 598.146 190.745 597.847 191.037L593.979 194.808C593.86 194.924 593.806 195.09 593.834 195.254L594.747 200.579C594.818 200.99 594.386 201.304 594.016 201.109L589.234 198.595C589.088 198.518 588.912 198.518 588.766 198.595L583.984 201.109C583.614 201.304 583.182 200.99 583.253 200.579L584.166 195.254C584.194 195.09 584.14 194.924 584.021 194.808L580.153 191.037C579.854 190.745 580.019 190.238 580.432 190.178L585.778 189.401C585.942 189.377 586.084 189.274 586.157 189.126L588.548 184.281Z" fill="white" stroke="white" stroke-width="1.5"/>
<path d="M349 184C347.22 184 345.48 184.528 344 185.517C342.52 186.506 341.366 187.911 340.685 189.556C340.004 191.2 339.826 193.01 340.173 194.756C340.52 196.502 341.377 198.105 342.636 199.364C343.895 200.623 345.498 201.48 347.244 201.827C348.99 202.174 350.8 201.996 352.444 201.315C354.089 200.634 355.494 199.48 356.483 198C357.472 196.52 358 194.78 358 193C358 190.613 357.052 188.324 355.364 186.636C353.676 184.948 351.387 184 349 184ZM354.094 196.816L352.825 198.085L349 194.269L345.184 198.094L343.906 196.816L347.731 193L343.906 189.184L345.184 187.906L349 191.731L352.816 187.915L354.085 189.184L350.269 193L354.094 196.816Z" fill="white"/>
<path d="M397 184C392.032 184 388 188.032 388 193C388 197.968 392.032 202 397 202C401.968 202 406 197.968 406 193C406 188.032 401.968 184 397 184ZM403.3 193.9H397.9V199.3H396.1V193.9H390.7V192.1H396.1V186.7H397.9V192.1H403.3V193.9Z" fill="white"/>
<path d="M638.077 202H627V188.846L632.538 184L638.077 188.846V202Z" stroke="white" stroke-width="1.5" stroke-linecap="square" stroke-linejoin="round"/>
<path d="M638.077 202H645V192.308H638.077" stroke="white" stroke-width="1.5" stroke-linecap="square" stroke-linejoin="round"/>
<path d="M632.539 202V199.23" stroke="white" stroke-width="1.5" stroke-linecap="square" stroke-linejoin="round"/>
<path d="M630.462 195.077H634.616" stroke="white" stroke-width="1.5" stroke-linecap="square" stroke-linejoin="round"/>
<path d="M630.462 190.923H634.616" stroke="white" stroke-width="1.5" stroke-linecap="square" stroke-linejoin="round"/>
<path d="M352.935 286.75H350.557L348.874 289.23L347.191 286.75H344.813L347.664 291.012L344.447 295.75H348.874V294.14H347.992L348.874 292.822L350.833 295.75H353.301L350.085 291.012L352.935 286.75Z" fill="white"/>
<path d="M356.009 284.026C355.618 283.494 355.074 282.871 354.476 282.274C353.879 281.676 353.256 281.132 352.724 280.741C351.817 280.076 351.377 280 351.125 280H342.406C341.631 280 341 280.631 341 281.406V296.594C341 297.369 341.631 298 342.406 298H355.344C356.119 298 356.75 297.369 356.75 296.594V285.625C356.75 285.373 356.674 284.933 356.009 284.026ZM353.68 283.07C354.22 283.61 354.643 284.096 354.956 284.5H352.249V281.794C352.653 282.107 353.141 282.53 353.68 283.07ZM355.625 296.594C355.625 296.747 355.497 296.875 355.344 296.875H342.406C342.332 296.874 342.261 296.844 342.208 296.792C342.156 296.739 342.126 296.668 342.125 296.594V281.406C342.125 281.254 342.254 281.125 342.406 281.125H351.125V285.062C351.125 285.212 351.184 285.355 351.29 285.46C351.395 285.566 351.538 285.625 351.688 285.625H355.625V296.594Z" fill="white"/>
<path d="M392.539 290.384L396 293.846L399.462 290.384" stroke="white" stroke-width="1.5" stroke-linecap="square"/>
<path d="M396 293V284.154" stroke="white" stroke-width="1.5" stroke-linecap="square" stroke-linejoin="round"/>
<path d="M396 298C400.971 298 405 293.971 405 289C405 284.029 400.971 280 396 280C391.029 280 387 284.029 387 289C387 293.971 391.029 298 396 298Z" stroke="white" stroke-width="1.5" stroke-linecap="square" stroke-linejoin="round"/>
<path d="M248.597 380.362C248.597 381.242 249.31 381.955 250.189 381.955C250.412 381.955 250.624 381.91 250.816 381.827C251.384 381.584 251.782 381.02 251.782 380.362C251.782 379.483 251.069 378.77 250.189 378.77C249.31 378.77 248.597 379.483 248.597 380.362Z" stroke="white" stroke-width="1.5" stroke-linecap="square" stroke-linejoin="round"/>
<path d="M247.77 383.532C248.023 383.051 248.378 382.653 248.802 382.377C249.227 382.101 249.705 381.956 250.191 381.956C250.678 381.956 251.156 382.101 251.58 382.377C252.004 382.653 252.36 383.051 252.613 383.532" stroke="white" stroke-width="1.5" stroke-linecap="square" stroke-linejoin="round"/>
<path d="M260.231 392.615C260.231 392.983 260.085 393.335 259.825 393.594C259.566 393.854 259.213 394 258.846 394H246.385C246.017 394 245.665 393.854 245.406 393.594C245.146 393.335 245 392.983 245 392.615V377.385C245 377.017 245.146 376.665 245.406 376.406C245.665 376.146 246.017 376 246.385 376H255.385L260.231 380.846V392.615Z" stroke="white" stroke-width="1.5" stroke-linecap="square" stroke-linejoin="round"/>
<path d="M247.77 387.077H257.462" stroke="white" stroke-width="1.5" stroke-linecap="square" stroke-linejoin="round"/>
<path d="M247.77 390.539H253.308" stroke="white" stroke-width="1.5" stroke-linecap="square" stroke-linejoin="round"/>
<path d="M485 196.204V199.893C485 200.451 485.211 200.987 485.586 201.383C485.961 201.778 486.47 202 487 202H499C499.53 202 500.039 201.778 500.414 201.383C500.789 200.987 501 200.451 501 199.892V196.204M493.001 195.942L493.001 184M493.001 184L488.429 188.563M493.001 184L497.572 188.563" stroke="white" stroke-width="1.5" stroke-linecap="square" stroke-linejoin="round"/>
<path d="M437 196.204L437 199.893C437 200.451 437.211 200.987 437.586 201.383C437.961 201.778 438.47 202 439 202H451C451.53 202 452.039 201.778 452.414 201.383C452.789 200.987 453 200.451 453 199.893V196.204M445.001 184V195.942M445.001 195.942L449.573 191.379M445.001 195.942L440.43 191.379" stroke="white" stroke-width="1.5" stroke-linecap="square" stroke-linejoin="round"/>
<path d="M443.999 293.5V293.54M441.75 286.23C441.75 284.964 442.757 283.938 444 283.938C445.243 283.938 446.25 284.964 446.25 286.23C446.25 287.496 445.243 288.522 444 288.522C444 288.522 443.999 289.207 443.999 290.051M453 289C453 293.971 448.971 298 444 298C439.029 298 435 293.971 435 289C435 284.029 439.029 280 444 280C448.971 280 453 284.029 453 289Z" stroke="white" stroke-width="1.5" stroke-linecap="square" stroke-linejoin="round"/>
<path d="M682.353 53.6V55.7C682.353 56.257 682.576 56.7911 682.973 57.1849C683.37 57.5788 683.909 57.8 684.471 57.8H691.882C692.444 57.8 692.983 57.5788 693.38 57.1849C693.777 56.7911 694 56.257 694 55.7L694 43.1C694 42.543 693.777 42.0089 693.38 41.6151C692.983 41.2213 692.444 41 691.882 41L684.471 41C683.909 41 683.37 41.2212 682.973 41.6151C682.576 42.0089 682.353 42.543 682.353 43.1V45.2M688.706 49.4L676 49.4M676 49.4L679.176 52.55M676 49.4L679.176 46.25" stroke="white" stroke-width="1.5" stroke-linecap="square" stroke-linejoin="round"/>
<path d="M639.647 45.2V43.1C639.647 42.543 639.424 42.0089 639.027 41.6151C638.63 41.2212 638.091 41 637.529 41H630.118C629.556 41 629.017 41.2212 628.62 41.6151C628.223 42.0089 628 42.543 628 43.1V55.7C628 56.257 628.223 56.7911 628.62 57.1849C629.017 57.5787 629.556 57.8 630.118 57.8H637.529C638.091 57.8 638.63 57.5787 639.027 57.1849C639.424 56.7911 639.647 56.257 639.647 55.7V53.6M633.294 49.4H646M646 49.4L642.824 46.25M646 49.4L642.824 52.55" stroke="white" stroke-width="1.5" stroke-linecap="square" stroke-linejoin="round"/>
<path d="M498.915 289.201L492.31 295.806C490.512 297.604 487.816 297.816 485.983 295.983C484.185 294.185 484.419 291.581 486.252 289.748L493.677 282.323C494.813 281.187 496.643 281.187 497.779 282.323C498.915 283.46 498.915 285.289 497.779 286.425L490.224 293.981C489.657 294.547 488.739 294.547 488.173 293.981C487.606 293.414 487.606 292.496 488.173 291.929L494.908 285.194" stroke="white" stroke-width="1.5" stroke-linecap="square"/>
<rect x="341.75" y="521.75" width="14.5" height="14.5" rx="7.25" fill="white" stroke="#CDD7E4" stroke-width="1.5"/>
<rect x="293.75" y="521.75" width="14.5" height="14.5" rx="7.25" fill="white" stroke="#246BEB" stroke-width="1.5"/>
<rect x="297" y="525" width="8" height="8" rx="4" fill="#246BEB"/>
<rect x="51.5" y="519.5" width="43" height="19" rx="9.5" fill="white" stroke="#CDD7E4"/>
<rect x="54.5" y="522.5" width="13" height="13" rx="6.5" fill="#EDF1F5" stroke="#CDD7E4"/>
<rect x="123.5" y="519.5" width="43" height="19" rx="9.5" fill="#246BEB" stroke="#CDD7E4"/>
<rect x="150.5" y="522.5" width="13" height="13" rx="6.5" fill="white" stroke="#CDD7E4"/>
<g clip-path="url(#clip0_481_82014)">
<path d="M392.41 526L397 530.327L401.59 526L403 527.332L397 533L391 527.332L392.41 526Z" fill="white"/>
</g>
<g clip-path="url(#clip1_481_82014)">
<path d="M440.41 532L445 527.673L449.59 532L451 530.668L445 525L439 530.668L440.41 532Z" fill="white"/>
</g>
<path d="M59.6069 379.427L61.6467 377.387C62.5756 376.488 63.8206 375.99 65.1134 376C66.4061 376.011 67.6429 376.529 68.5571 377.443C69.4712 378.357 69.9894 379.594 69.9999 380.887C70.0104 382.179 69.5123 383.424 68.6132 384.353L66.5734 386.393" stroke="white" stroke-width="1.5" stroke-linecap="square" stroke-linejoin="round"/>
<path d="M62.3931 390.573L60.3534 392.613C59.4245 393.512 58.1794 394.01 56.8867 393.999C55.5939 393.989 54.3571 393.471 53.443 392.557C52.5289 391.642 52.0107 390.406 52.0002 389.113C51.9897 387.82 52.4877 386.575 53.3869 385.646L55.4267 383.606" stroke="white" stroke-width="1.5" stroke-linecap="square" stroke-linejoin="round"/>
<path d="M63.7861 382.213L58.2129 387.787" stroke="white" stroke-width="1.5" stroke-linecap="square" stroke-linejoin="round"/>
<path d="M101 388.077H112.462C113.93 388.077 115.339 387.493 116.378 386.455C117.416 385.416 118 384.007 118 382.538C118 381.07 117.416 379.661 116.378 378.622C115.339 377.584 113.93 377 112.462 377H108.308" stroke="white" stroke-width="1.5" stroke-linecap="square" stroke-linejoin="round"/>
<path d="M104.154 383.923L100 388.077L104.154 392.231" stroke="white" stroke-width="1.5" stroke-linecap="square" stroke-linejoin="round"/>
<path d="M148.692 379.385C148.876 379.385 149.052 379.312 149.182 379.182C149.312 379.052 149.385 378.876 149.385 378.692C149.385 378.509 149.312 378.333 149.182 378.203C149.052 378.073 148.876 378 148.692 378C148.509 378 148.333 378.073 148.203 378.203C148.073 378.333 148 378.509 148 378.692C148 378.876 148.073 379.052 148.203 379.182C148.333 379.312 148.509 379.385 148.692 379.385Z" stroke="white" stroke-width="1.5" stroke-linecap="square" stroke-linejoin="round"/>
<path d="M153.539 378.692H166" stroke="white" stroke-width="1.5" stroke-linecap="square" stroke-linejoin="round"/>
<path d="M148.692 385.616C148.876 385.616 149.052 385.543 149.182 385.413C149.312 385.283 149.385 385.107 149.385 384.923C149.385 384.74 149.312 384.564 149.182 384.434C149.052 384.304 148.876 384.231 148.692 384.231C148.509 384.231 148.333 384.304 148.203 384.434C148.073 384.564 148 384.74 148 384.923C148 385.107 148.073 385.283 148.203 385.413C148.333 385.543 148.509 385.616 148.692 385.616Z" stroke="white" stroke-width="1.5" stroke-linecap="square" stroke-linejoin="round"/>
<path d="M153.539 384.923H166" stroke="white" stroke-width="1.5" stroke-linecap="square" stroke-linejoin="round"/>
<path d="M148.692 391.846C148.876 391.846 149.052 391.773 149.182 391.643C149.312 391.513 149.385 391.337 149.385 391.154C149.385 390.97 149.312 390.794 149.182 390.664C149.052 390.534 148.876 390.461 148.692 390.461C148.509 390.461 148.333 390.534 148.203 390.664C148.073 390.794 148 390.97 148 391.154C148 391.337 148.073 391.513 148.203 391.643C148.333 391.773 148.509 391.846 148.692 391.846Z" stroke="white" stroke-width="1.5" stroke-linecap="square" stroke-linejoin="round"/>
<path d="M153.539 391.154H166" stroke="white" stroke-width="1.5" stroke-linecap="square" stroke-linejoin="round"/>
<path d="M212.615 377H204.307C203.94 377 203.588 377.146 203.328 377.406C203.069 377.665 202.923 378.017 202.923 378.385V383.923C202.923 384.29 203.069 384.642 203.328 384.902C203.588 385.162 203.94 385.308 204.307 385.308H212.615C212.982 385.308 213.335 385.162 213.594 384.902C213.854 384.642 214 384.29 214 383.923V378.385C214 378.017 213.854 377.665 213.594 377.406C213.335 377.146 212.982 377 212.615 377Z" stroke="white" stroke-width="1.5" stroke-linecap="square"/>
<path d="M210.539 388.769H200.847C200.479 388.769 200.127 388.623 199.867 388.364C199.608 388.104 199.462 387.752 199.462 387.385V380.461" stroke="white" stroke-width="1.5" stroke-linecap="square"/>
<path d="M207.769 392.231H197.385C197.017 392.231 196.665 392.085 196.406 391.825C196.146 391.566 196 391.214 196 390.846V383.231" stroke="white" stroke-width="1.5" stroke-linecap="square"/>
<path d="M296.741 387.918L299.487 385.49V392.77" stroke="white" stroke-width="1.5" stroke-linecap="square" stroke-linejoin="round"/>
<path d="M305.158 390.344L302.411 392.77V385.49" stroke="white" stroke-width="1.5" stroke-linecap="square" stroke-linejoin="round"/>
<path d="M296.652 390.7C295.49 390.751 294.353 390.346 293.485 389.57C292.618 388.794 292.088 387.709 292.01 386.548C291.932 385.387 292.312 384.241 293.068 383.356C293.824 382.471 294.896 381.917 296.055 381.813C296.116 381.814 296.176 381.798 296.228 381.767C296.28 381.735 296.321 381.689 296.348 381.635C296.751 380.468 297.541 379.475 298.588 378.821C299.634 378.167 300.873 377.891 302.098 378.039C303.323 378.188 304.46 378.752 305.32 379.637C306.179 380.522 306.71 381.675 306.822 382.904C306.832 382.969 306.859 383.029 306.902 383.079C306.945 383.128 307.001 383.164 307.063 383.183C307.837 383.365 308.535 383.785 309.058 384.383C309.582 384.982 309.905 385.729 309.982 386.52C310.059 387.312 309.887 388.107 309.489 388.796C309.091 389.484 308.488 390.031 307.764 390.359" stroke="white" stroke-width="1.5" stroke-linecap="square" stroke-linejoin="round"/>
<path d="M352.295 388.291H345.637" stroke="white" stroke-width="1.5" stroke-linecap="square" stroke-linejoin="round"/>
<path d="M348.966 384.961V391.62" stroke="white" stroke-width="1.5" stroke-linecap="square" stroke-linejoin="round"/>
<path d="M344.679 390.671C343.513 390.733 342.37 390.333 341.496 389.558C340.622 388.783 340.088 387.696 340.01 386.531C339.932 385.365 340.315 384.216 341.078 383.332C341.84 382.447 342.92 381.898 344.084 381.803C344.144 381.805 344.204 381.789 344.256 381.757C344.307 381.726 344.349 381.681 344.376 381.626C344.778 380.463 345.566 379.472 346.61 378.819C347.654 378.166 348.89 377.891 350.113 378.039C351.335 378.187 352.469 378.75 353.327 379.633C354.185 380.516 354.714 381.667 354.826 382.893C354.836 382.957 354.863 383.018 354.906 383.067C354.949 383.117 355.004 383.153 355.067 383.171C355.973 383.384 356.77 383.921 357.306 384.682C357.842 385.443 358.081 386.374 357.976 387.298C357.871 388.223 357.431 389.077 356.738 389.699C356.045 390.321 355.149 390.666 354.218 390.671" stroke="white" stroke-width="1.5" stroke-linecap="square" stroke-linejoin="round"/>
<path d="M396.997 392.09C395.967 392.09 394.978 391.68 394.25 390.952C393.521 390.223 393.112 389.235 393.112 388.204C393.112 387.174 393.521 386.186 394.25 385.457C394.978 384.729 395.967 384.319 396.997 384.319C398.027 384.319 399.015 384.729 399.744 385.457C400.473 386.186 400.882 387.174 400.882 388.204C400.882 389.235 400.473 390.223 399.744 390.952C399.015 391.68 398.027 392.09 396.997 392.09Z" stroke="white" stroke-width="1.5" stroke-linecap="square" stroke-linejoin="round"/>
<path d="M399.747 390.954L394.247 385.456" stroke="white" stroke-width="1.5" stroke-linecap="square" stroke-linejoin="round"/>
<path d="M391.195 390.466C390.195 390.176 389.33 389.543 388.75 388.678C388.171 387.813 387.914 386.772 388.025 385.737C388.137 384.702 388.609 383.739 389.36 383.018C390.11 382.296 391.09 381.862 392.129 381.791C392.189 381.793 392.249 381.777 392.3 381.746C392.352 381.714 392.394 381.669 392.42 381.615C392.821 380.455 393.607 379.467 394.648 378.816C395.688 378.166 396.921 377.891 398.139 378.039C399.358 378.187 400.489 378.748 401.344 379.628C402.199 380.508 402.726 381.655 402.838 382.878C402.847 382.942 402.875 383.002 402.918 383.051C402.96 383.101 403.016 383.137 403.078 383.155C403.923 383.354 404.675 383.836 405.206 384.523C405.738 385.209 406.018 386.057 405.999 386.925C405.98 387.793 405.664 388.628 405.103 389.291C404.542 389.953 403.77 390.403 402.917 390.565" stroke="white" stroke-width="1.5" stroke-linecap="square" stroke-linejoin="round"/>
<path d="M496.465 390.634H498.231C499.158 390.63 500.052 390.285 500.742 389.666C501.433 389.047 501.872 388.195 501.976 387.274C502.08 386.352 501.843 385.424 501.308 384.666C500.774 383.908 499.98 383.372 499.077 383.161C499.015 383.142 498.959 383.106 498.917 383.057C498.874 383.008 498.847 382.948 498.837 382.883C498.727 381.66 498.2 380.512 497.345 379.63C496.49 378.749 495.359 378.187 494.14 378.039C492.921 377.891 491.688 378.166 490.647 378.818C489.606 379.469 488.82 380.459 488.42 381.62C488.394 381.674 488.352 381.719 488.3 381.751C488.249 381.782 488.189 381.798 488.129 381.796C487.255 381.855 486.419 382.172 485.726 382.707C485.032 383.241 484.512 383.969 484.232 384.799C483.953 385.628 483.925 386.522 484.153 387.368C484.381 388.213 484.854 388.972 485.513 389.548C486.397 390.321 487.448 390.633 488.724 390.633H489.529" stroke="white" stroke-width="1.5" stroke-linecap="square" stroke-linejoin="round"/>
<path d="M492.998 384.538V389.393" stroke="white" stroke-width="1.5" stroke-linecap="square" stroke-linejoin="round"/>
<path d="M493 392L493 392.1" stroke="white" stroke-width="1.5" stroke-linecap="square" stroke-linejoin="round"/>
<path d="M438.063 388.954C437.474 388.581 436.981 388.075 436.624 387.476C436.267 386.877 436.057 386.202 436.01 385.506C435.971 384.926 436.047 384.343 436.233 383.792C436.419 383.241 436.712 382.732 437.095 382.294C437.477 381.856 437.943 381.497 438.464 381.239C438.986 380.981 439.553 380.828 440.133 380.789C440.193 380.791 440.253 380.775 440.304 380.744C440.356 380.713 440.398 380.668 440.425 380.615C440.825 379.455 441.611 378.467 442.652 377.816C443.692 377.166 444.924 376.891 446.143 377.039C447.361 377.187 448.492 377.747 449.347 378.628C450.202 379.508 450.729 380.655 450.841 381.877C450.85 381.941 450.878 382.002 450.92 382.051C450.963 382.1 451.018 382.136 451.081 382.154C451.836 382.332 452.517 382.737 453.035 383.315C453.552 383.893 453.879 384.615 453.972 385.385C454.066 386.155 453.921 386.935 453.557 387.619C453.193 388.304 452.627 388.86 451.937 389.213" stroke="white" stroke-width="1.5" stroke-linecap="square" stroke-linejoin="round"/>
<path d="M446.537 386.019L443.46 387.557" stroke="white" stroke-width="1.5" stroke-linecap="square" stroke-linejoin="round"/>
<path d="M446.387 385.4C446.387 385.768 446.533 386.12 446.794 386.381C447.054 386.641 447.407 386.787 447.775 386.787C448.143 386.787 448.495 386.641 448.756 386.381C449.016 386.12 449.162 385.768 449.162 385.4C449.162 385.032 449.016 384.679 448.756 384.419C448.495 384.158 448.143 384.012 447.775 384.012C447.407 384.012 447.054 384.158 446.794 384.419C446.533 384.679 446.387 385.032 446.387 385.4Z" stroke="white" stroke-width="1.5" stroke-linecap="square" stroke-linejoin="round"/>
<path d="M440.838 388.174C440.838 388.542 440.985 388.895 441.245 389.155C441.505 389.416 441.858 389.562 442.226 389.562C442.594 389.562 442.947 389.416 443.207 389.155C443.467 388.895 443.613 388.542 443.613 388.174C443.613 387.807 443.467 387.454 443.207 387.193C442.947 386.933 442.594 386.787 442.226 386.787C441.858 386.787 441.505 386.933 441.245 387.193C440.985 387.454 440.838 387.807 440.838 388.174Z" stroke="white" stroke-width="1.5" stroke-linecap="square" stroke-linejoin="round"/>
<path d="M446.387 390.949C446.387 391.317 446.533 391.67 446.794 391.93C447.054 392.19 447.407 392.336 447.775 392.336C448.143 392.336 448.495 392.19 448.756 391.93C449.016 391.67 449.162 391.317 449.162 390.949C449.162 390.581 449.016 390.228 448.756 389.968C448.495 389.708 448.143 389.562 447.775 389.562C447.407 389.562 447.054 389.708 446.794 389.968C446.533 390.228 446.387 390.581 446.387 390.949Z" stroke="white" stroke-width="1.5" stroke-linecap="square" stroke-linejoin="round"/>
<path d="M443.46 388.792L446.537 390.33" stroke="white" stroke-width="1.5" stroke-linecap="square" stroke-linejoin="round"/>
<path d="M892.01 290.506C892.01 290 892.047 289.343 892.233 288.792C892.419 288.241 892.712 287.732 893.095 287.294C893.478 286.856 893.943 286.497 894.465 286.239C894.986 285.981 895.553 285.828 896.133 285.789C896.194 285.791 896.253 285.775 896.305 285.744C896.356 285.713 896.398 285.668 896.425 285.615C896.825 284.455 897.611 283.467 898.652 282.816C899.692 282.166 900.925 281.891 902.143 282.039C903.361 282.187 904.492 282.747 905.347 283.628C906.202 284.508 906.729 285.655 906.841 286.877C906.85 286.941 906.878 287.002 906.921 287.051C906.963 287.1 907.019 287.136 907.081 287.154C907.836 287.332 908.518 287.737 909.035 288.315C909.552 288.893 909.973 289.5 909.973 290.385" stroke="white" stroke-width="1.5" stroke-linecap="square" stroke-linejoin="round"/>
<path d="M905.405 292.346V291.344H908.954V292.346H907.777V296.989H908.954V298H905.405V296.989H906.582V292.346H905.405Z" fill="white"/>
<path d="M899.889 298V291.344H902.389C903.916 291.344 904.734 292.272 904.734 293.55C904.734 294.828 903.906 295.748 902.371 295.748H901.084V298H899.889ZM901.084 294.764H902.205C903.106 294.764 903.511 294.258 903.511 293.55C903.511 292.833 903.106 292.346 902.205 292.346H901.084V294.764Z" fill="white"/>
<path d="M894.207 298H892.929L895.274 291.344H896.745L899.098 298H897.82L897.269 296.354H894.759L894.207 298ZM895.081 295.389H896.947L896.037 292.704H895.982L895.081 295.389Z" fill="white"/>
<path d="M66.9733 431.937C68.3397 432.699 68.3447 433.657 66.9733 434.518L56.3763 441.665C55.0448 442.375 54.1405 441.956 54.0455 440.418L54.0006 425.46C53.9706 424.044 55.1372 423.643 56.2489 424.322L66.9733 431.937Z" stroke="white" stroke-width="1.5"/>
<path d="M109.498 441.903C109.178 442.027 108.822 442.027 108.502 441.903C105.996 440.921 103.845 439.206 102.329 436.984C100.812 434.761 100.001 432.132 100 429.442V425.385C100 425.017 100.146 424.665 100.406 424.406C100.665 424.146 101.017 424 101.385 424H116.615C116.983 424 117.335 424.146 117.594 424.406C117.854 424.665 118 425.017 118 425.385V429.428C118.002 432.121 117.192 434.752 115.675 436.978C114.158 439.203 112.006 440.92 109.498 441.903Z" stroke="white" stroke-width="1.71429" stroke-linecap="round" stroke-linejoin="round"/>
<path d="M103.235 438.165C103.867 437.215 104.724 436.435 105.729 435.897C106.735 435.358 107.859 435.076 109 435.077C111.405 435.077 113.523 436.304 114.765 438.165" stroke="white" stroke-width="1.71429" stroke-linecap="round" stroke-linejoin="round"/>
<path d="M109 433C109.409 433 109.814 432.92 110.192 432.763C110.57 432.607 110.914 432.377 111.203 432.088C111.492 431.799 111.722 431.455 111.878 431.077C112.035 430.699 112.116 430.294 112.116 429.885C112.116 429.476 112.035 429.071 111.878 428.693C111.722 428.315 111.492 427.971 111.203 427.682C110.914 427.393 110.57 427.163 110.192 427.007C109.814 426.85 109.409 426.77 109 426.77C108.174 426.77 107.381 427.098 106.797 427.682C106.213 428.266 105.885 429.059 105.885 429.885C105.885 430.711 106.213 431.504 106.797 432.088C107.381 432.672 108.174 433 109 433Z" stroke="white" stroke-width="1.71429" stroke-linecap="round" stroke-linejoin="round"/>
<path d="M686.65 192.599C686.65 193.808 685.643 194.788 684.4 194.788C683.158 194.788 682.15 193.808 682.15 192.599C682.15 191.39 683.158 190.41 684.4 190.41C685.643 190.41 686.65 191.39 686.65 192.599Z" stroke="white" stroke-width="1.5"/>
<path d="M740.875 200.063L726.812 186M731.312 191.57C730.962 191.956 730.75 192.463 730.75 193.018C730.75 194.228 731.757 195.208 733 195.208C733.573 195.208 734.096 194.999 734.493 194.656M740.911 195.208C741.686 194.048 742 193.103 742 193.103C742 193.103 739.952 186.563 733 186.563C732.61 186.563 732.235 186.583 731.875 186.622M738.062 198.046C736.771 198.87 735.109 199.453 733 199.418C726.135 199.306 724 193.103 724 193.103C724 193.103 724.992 189.936 727.938 188.009" stroke="white" stroke-width="1.5" stroke-linecap="square"/>
<path d="M66.6253 280H56.2501C55.0075 280 54.0001 281.007 54.0001 282.25L54 295.75C54 296.993 55.0073 298 56.25 298L66.375 298C67.6177 298 68.625 296.993 68.625 295.75L68.6253 282C68.6253 280.895 67.7299 280 66.6253 280Z" stroke="white" stroke-width="1.5" stroke-linecap="round" stroke-linejoin="round"/>
<path d="M107.75 298H103.25C102.007 298 101 296.993 101 295.75L101 282.25C101 281.007 102.007 280 103.25 280H113.375C114.618 280 115.625 281.007 115.625 282.25V288.438M112.25 294.665L114.551 292.375M114.551 292.375L116.75 294.561M114.551 292.375V298" stroke="white" stroke-width="1.5" stroke-linecap="square" stroke-linejoin="round"/>
<path d="M155.75 298H151.25C150.007 298 149 296.993 149 295.75L149 282.25C149 281.007 150.007 280 151.25 280H161.375C162.618 280 163.625 281.007 163.625 282.25V288.438M164.75 295.71L162.449 298M162.449 298L160.25 295.814M162.449 298V292.375" stroke="white" stroke-width="1.5" stroke-linecap="square"/>
<path d="M204.188 298H200.25C199.007 298 198 296.993 198 295.75L198 282.25C198 281.007 199.007 280 200.25 280H210.375C211.618 280 212.625 281.007 212.625 282.25V289.562M212.625 298L210.375 295.75M210.375 295.75L208.125 293.5M210.375 295.75L208.125 298M210.375 295.75L212.625 293.5" stroke="white" stroke-width="1.5" stroke-linecap="square" stroke-linejoin="round"/>
<path d="M252.875 298H247.25C246.007 298 245 296.993 245 295.75L245 282.25C245 281.007 246.007 280 247.25 280H257.375C258.618 280 259.625 281.007 259.625 282.25V290.125M255.125 294.432H261.489" stroke="white" stroke-width="1.5" stroke-linecap="square" stroke-linejoin="round"/>
<path d="M299.75 298H295.25C294.007 298 293 296.993 293 295.75L293 282.25C293 281.007 294.007 280 295.25 280H305.375C306.618 280 307.625 281.007 307.625 282.25V288.438M306.307 297.614V294.432M306.307 294.432V291.25M306.307 294.432L303.125 294.432M306.307 294.432L309.489 294.432" stroke="white" stroke-width="1.5" stroke-linecap="round" stroke-linejoin="round"/>
<path d="M676.001 286.086L676.001 294.89C676.001 295.994 676.896 296.89 678.001 296.89L692 296.89C693.104 296.89 694 295.994 694 294.89L694 285.769C694 285.217 693.552 284.769 693 284.769H685.078L682.486 282H677C676.448 282 676 282.447 676 283C676.001 283.89 676.001 285.188 676.001 286.086Z" stroke="white" stroke-width="1.5" stroke-linecap="round" stroke-linejoin="round"/>
<path d="M637 293.8L637 290.406M637 290.406L637 287.012M637 290.406L633.606 290.406M637 290.406L640.394 290.406M627.401 294.541L627.401 285.416C627.401 284.503 627.401 283.201 627.4 282.258C627.4 281.595 627.938 281.059 628.6 281.059H634.319L637.084 284.012H645.4C646.063 284.012 646.6 284.55 646.6 285.212L646.6 294.541C646.6 295.866 645.525 296.941 644.2 296.941L629.801 296.941C628.475 296.941 627.401 295.866 627.401 294.541Z" stroke="white" stroke-width="1.5" stroke-linecap="square"/>
<path d="M585.606 290.406H592.394M579.401 294.541L579.401 285.416C579.401 284.503 579.401 283.201 579.4 282.258C579.4 281.595 579.938 281.059 580.6 281.059H586.319L589.084 284.012H597.4C598.063 284.012 598.6 284.55 598.6 285.212L598.6 294.541C598.6 295.866 597.525 296.941 596.2 296.941L581.801 296.941C580.475 296.941 579.401 295.866 579.401 294.541Z" stroke="white" stroke-width="1.5" stroke-linecap="square" stroke-linejoin="round"/>
<path d="M543.4 292.6L541 290.2M541 290.2L538.6 287.8M541 290.2L538.6 292.6M541 290.2L543.4 287.8M531.401 294.541L531.401 285.416C531.401 284.503 531.401 283.201 531.4 282.258C531.4 281.595 531.938 281.059 532.6 281.059H538.319L541.084 284.012H549.4C550.063 284.012 550.6 284.55 550.6 285.212L550.6 294.541C550.6 295.866 549.525 296.941 548.2 296.941L533.801 296.941C532.475 296.941 531.401 295.866 531.401 294.541Z" stroke="white" stroke-width="1.5" stroke-linecap="square" stroke-linejoin="round"/>
<path d="M159.692 426.77H151.385C151.017 426.77 150.665 426.915 150.406 427.175C150.146 427.435 150 427.787 150 428.154V440.616C150 440.983 150.146 441.335 150.406 441.595C150.665 441.854 151.017 442 151.385 442H159.692C160.06 442 160.412 441.854 160.671 441.595C160.931 441.335 161.077 440.983 161.077 440.616V428.154C161.077 427.787 160.931 427.435 160.671 427.175C160.412 426.915 160.06 426.77 159.692 426.77Z" stroke="white" stroke-width="1.5" stroke-linecap="square"/>
<path d="M152.77 430.231H158.308" stroke="white" stroke-width="1.5" stroke-linecap="square"/>
<path d="M152.77 433.692H158.308" stroke="white" stroke-width="1.5" stroke-linecap="square"/>
<path d="M152.77 437.154H155.539" stroke="white" stroke-width="1.5" stroke-linecap="square"/>
<path d="M153.462 424H162.462C162.829 424 163.181 424.146 163.441 424.406C163.701 424.665 163.847 425.017 163.847 425.385V438.538" stroke="white" stroke-width="1.5" stroke-linecap="square"/>
<path d="M202.23 440.256L196 442L197.744 435.77L209.153 424.417C209.282 424.285 209.436 424.18 209.606 424.108C209.776 424.037 209.958 424 210.143 424C210.327 424 210.51 424.037 210.68 424.108C210.85 424.18 211.004 424.285 211.133 424.417L213.583 426.881C213.713 427.01 213.816 427.163 213.886 427.332C213.956 427.5 213.992 427.681 213.992 427.864C213.992 428.047 213.956 428.228 213.886 428.396C213.816 428.565 213.713 428.718 213.583 428.847L202.23 440.256Z" stroke="white" stroke-width="1.5" stroke-linecap="round" stroke-linejoin="round"/>
<path d="M254.384 424H245.385C245.017 424 244.665 424.146 244.406 424.406C244.146 424.665 244 425.017 244 425.385V440.615C244 440.982 244.146 441.334 244.406 441.594C244.665 441.853 245.017 441.999 245.385 441.999H257.845C258.213 441.999 258.565 441.853 258.824 441.594C259.084 441.334 259.23 440.982 259.23 440.615V434.384" stroke="white" stroke-width="1.5" stroke-linecap="square" stroke-linejoin="round"/>
<path d="M244 437.846H259.23" stroke="white" stroke-width="1.5" stroke-linecap="square" stroke-linejoin="round"/>
<path d="M248.153 427.461H250.922" stroke="white" stroke-width="1.5" stroke-linecap="square" stroke-linejoin="round"/>
<path d="M248.153 430.923H249.538" stroke="white" stroke-width="1.5" stroke-linecap="square" stroke-linejoin="round"/>
<path d="M255.76 433.7L251.606 434.448L252.299 430.239L258.155 424.41C258.284 424.28 258.437 424.177 258.606 424.107C258.775 424.037 258.956 424 259.138 424C259.321 424 259.502 424.037 259.671 424.107C259.84 424.177 259.993 424.28 260.121 424.41L261.589 425.878C261.719 426.006 261.822 426.159 261.893 426.328C261.963 426.497 262 426.678 262 426.861C262 427.044 261.963 427.225 261.893 427.393C261.822 427.562 261.719 427.715 261.589 427.844L255.76 433.7Z" stroke="white" stroke-width="1.5" stroke-linecap="square" stroke-linejoin="round"/>
<path d="M308.615 424H293.385C293.017 424 292.665 424.146 292.406 424.406C292.146 424.665 292 425.017 292 425.385V440.615C292 440.983 292.146 441.335 292.406 441.594C292.665 441.854 293.017 442 293.385 442H308.615C308.983 442 309.335 441.854 309.594 441.594C309.854 441.335 310 440.983 310 440.615V425.385C310 425.017 309.854 424.665 309.594 424.406C309.335 424.146 308.983 424 308.615 424Z" stroke="white" stroke-width="1.5" stroke-linecap="square" stroke-linejoin="round"/>
<path d="M292 428.154H310" stroke="white" stroke-width="1.5" stroke-linecap="square" stroke-linejoin="round"/>
<path d="M301 428.154V442" stroke="white" stroke-width="1.5" stroke-linecap="square" stroke-linejoin="round"/>
<path d="M292 435.077H310" stroke="white" stroke-width="1.5" stroke-linecap="square" stroke-linejoin="round"/>
<path d="M344.848 439.931H341.385C341.018 439.931 340.666 439.785 340.406 439.525C340.146 439.265 340 438.913 340 438.546V425.386C340 425.018 340.146 424.666 340.406 424.406C340.666 424.147 341.018 424.001 341.385 424.001H346.497C346.813 423.991 347.123 424.091 347.375 424.282C347.627 424.474 347.806 424.746 347.882 425.053L348.27 426.771H356.581C356.949 426.771 357.301 426.917 357.561 427.177C357.82 427.437 357.966 427.789 357.966 428.156V433.697" stroke="white" stroke-width="1.5" stroke-linecap="square"/>
<path d="M357.897 440.775C357.999 440.964 358.026 441.183 357.974 441.391C357.922 441.599 357.794 441.779 357.616 441.897C357.496 441.97 357.358 442.009 357.218 442.008H349.087C348.946 442.008 348.809 441.97 348.689 441.896C348.569 441.823 348.472 441.718 348.408 441.593C348.34 441.467 348.305 441.327 348.305 441.184C348.305 441.041 348.34 440.901 348.408 440.775L352.495 433.406C352.551 433.268 352.647 433.151 352.77 433.068C352.893 432.985 353.039 432.94 353.187 432.94C353.336 432.94 353.481 432.985 353.604 433.068C353.728 433.151 353.824 433.268 353.88 433.406L357.897 440.775Z" stroke="white" stroke-width="1.5" stroke-linecap="square"/>
<path d="M353.16 437.853V436.468" stroke="white" stroke-width="1.5" stroke-linecap="square"/>
<path d="M353.16 440.05V440" stroke="white" stroke-width="1.5" stroke-linecap="square"/>
<path d="M392.848 439.238H389.385C389.018 439.238 388.666 439.092 388.406 438.832C388.146 438.572 388 438.22 388 437.852V425.385C388 425.018 388.146 424.666 388.406 424.406C388.666 424.146 389.018 424 389.385 424H397.697L401.852 428.156V429.541" stroke="white" stroke-width="1.5" stroke-linecap="square" stroke-linejoin="round"/>
<path d="M405.897 440.775C405.999 440.964 406.026 441.183 405.974 441.391C405.922 441.599 405.794 441.779 405.616 441.897C405.496 441.97 405.358 442.009 405.218 442.008H397.087C396.946 442.008 396.809 441.97 396.689 441.896C396.569 441.823 396.472 441.718 396.408 441.593C396.34 441.467 396.305 441.327 396.305 441.184C396.305 441.041 396.34 440.901 396.408 440.775L400.495 433.406C400.551 433.268 400.647 433.151 400.77 433.068C400.893 432.985 401.039 432.94 401.187 432.94C401.336 432.94 401.481 432.985 401.604 433.068C401.728 433.151 401.824 433.268 401.88 433.406L405.897 440.775Z" stroke="white" stroke-width="1.5" stroke-linecap="square" stroke-linejoin="round"/>
<path d="M401.16 437.853V436.467" stroke="white" stroke-width="1.5" stroke-linecap="square" stroke-linejoin="round"/>
<path d="M401.16 440.05V440" stroke="white" stroke-width="1.5" stroke-linecap="square" stroke-linejoin="round"/>
<path d="M440.846 440.615H437.385C437.017 440.615 436.665 440.47 436.406 440.21C436.146 439.95 436 439.598 436 439.231V425.385C436 425.017 436.146 424.665 436.406 424.406C436.665 424.146 437.017 424 437.385 424H452.615C452.983 424 453.335 424.146 453.594 424.406C453.854 424.665 454 425.017 454 425.385V433.692" stroke="white" stroke-width="1.5" stroke-linecap="square"/>
<path d="M436 428.154H454" stroke="white" stroke-width="1.5" stroke-linecap="square"/>
<path d="M453.889 440.768C453.99 440.956 454.018 441.176 453.966 441.383C453.914 441.591 453.786 441.771 453.608 441.89C453.488 441.962 453.35 442.001 453.21 442H445.083C444.942 442 444.804 441.962 444.685 441.888C444.565 441.815 444.468 441.71 444.404 441.585C444.336 441.459 444.301 441.319 444.301 441.176C444.301 441.034 444.336 440.893 444.404 440.768L448.489 433.402C448.545 433.264 448.641 433.147 448.764 433.064C448.887 432.981 449.033 432.937 449.181 432.937C449.33 432.937 449.475 432.981 449.598 433.064C449.721 433.147 449.817 433.264 449.873 433.402L453.889 440.768Z" stroke="white" stroke-width="1.5" stroke-linecap="square"/>
<path d="M449.154 437.846V436.461" stroke="white" stroke-width="1.5" stroke-linecap="square"/>
<path d="M449.154 440.05V440" stroke="white" stroke-width="1.5" stroke-linecap="square"/>
<path d="M492.1 427.6V430.3C492.1 430.797 492.503 431.2 493 431.2H495.7M497.5 424H491.2C490.206 424 489.4 424.806 489.4 425.8V427.6M497.5 424H498.002C498.256 424 498.497 424.107 498.672 424.29C498.934 424.567 499.35 424.992 499.75 425.35C500.064 425.631 500.557 426.135 500.853 426.441C501.012 426.607 501.1 426.828 501.1 427.058L501.1 427.6M497.5 424V426.7C497.5 427.197 497.903 427.6 498.4 427.6H501.1M501.1 427.6L501.1 436.6C501.1 437.594 500.294 438.4 499.3 438.4H495.7M494.35 428.95C493.95 428.592 493.534 428.167 493.272 427.89C493.097 427.707 492.856 427.6 492.602 427.6H485.8C484.806 427.6 484 428.406 484 429.4L484 440.2C484 441.194 484.806 442 485.8 442L493.9 442C494.894 442 495.7 441.194 495.7 440.2L495.7 430.658C495.7 430.428 495.612 430.207 495.453 430.041C495.157 429.735 494.664 429.231 494.35 428.95Z" stroke="white" stroke-width="1.5" stroke-linecap="square" stroke-linejoin="round"/>
<path d="M536.846 433L541 428.154L545.154 433" stroke="white" stroke-width="1.5" stroke-linecap="square" stroke-linejoin="round"/>
<path d="M541 429V438" stroke="white" stroke-width="1.5" stroke-linecap="square" stroke-linejoin="round"/>
<path d="M541 442C543.387 442 545.676 441.052 547.364 439.364C549.052 437.676 550 435.387 550 433C550 430.613 549.052 428.324 547.364 426.636C545.676 424.948 543.387 424 541 424C538.613 424 536.324 424.948 534.636 426.636C532.948 428.324 532 430.613 532 433C532 435.387 532.948 437.676 534.636 439.364C536.324 441.052 538.613 442 541 442Z" stroke="white" stroke-width="1.5" stroke-linecap="square" stroke-linejoin="round"/>
<path d="M594.538 426.077H597.308C597.491 426.077 597.667 426.15 597.797 426.279C597.927 426.409 598 426.585 598 426.769V437.846C598 438.03 597.927 438.206 597.797 438.335C597.667 438.465 597.491 438.538 597.308 438.538H580.692C580.509 438.538 580.333 438.465 580.203 438.335C580.073 438.206 580 438.03 580 437.846V426.769C580 426.585 580.073 426.409 580.203 426.279C580.333 426.15 580.509 426.077 580.692 426.077H583.462" stroke="white" stroke-width="1.5" stroke-linecap="square" stroke-linejoin="round"/>
<path d="M587.5 439L586.5 441.5" stroke="white" stroke-width="1.5" stroke-linecap="square" stroke-linejoin="round"/>
<path d="M590.5 439L591.5 441.5" stroke="white" stroke-width="1.5" stroke-linecap="square" stroke-linejoin="round"/>
<path d="M584.846 442H593.154" stroke="white" stroke-width="1.5" stroke-linecap="square" stroke-linejoin="round"/>
<path d="M589 432.308V424.5" stroke="white" stroke-width="1.5" stroke-linecap="square" stroke-linejoin="round"/>
<path d="M586.23 426.769L589 424L591.769 426.769" stroke="white" stroke-width="1.5" stroke-linecap="square" stroke-linejoin="round"/>
<path d="M644.231 440.615C644.231 440.983 644.085 441.335 643.825 441.594C643.566 441.854 643.213 442 642.846 442H630.385C630.017 442 629.665 441.854 629.406 441.594C629.146 441.335 629 440.983 629 440.615V425.385C629 425.017 629.146 424.665 629.406 424.406C629.665 424.146 630.017 424 630.385 424H639.385L644.231 428.846V440.615Z" stroke="white" stroke-width="1.5" stroke-linecap="square" stroke-linejoin="round"/>
<path d="M639.386 432.307L636.616 429.538L633.847 432.307" stroke="white" stroke-width="1.5" stroke-linecap="square" stroke-linejoin="round"/>
<path d="M636.616 430V437.153" stroke="white" stroke-width="1.5" stroke-linecap="square" stroke-linejoin="round"/>
<path d="M686.286 424H676" stroke="white" stroke-width="1.5" stroke-linecap="square" stroke-linejoin="round"/>
<path d="M686.286 427.857H679.212" stroke="white" stroke-width="1.5" stroke-linecap="square" stroke-linejoin="round"/>
<path d="M686.286 431.714H682.428" stroke="white" stroke-width="1.5" stroke-linecap="square" stroke-linejoin="round"/>
<path d="M694 438.539L690.5 442L687.077 438.539" stroke="white" stroke-width="1.5" stroke-linecap="square" stroke-linejoin="round"/>
<path d="M690.5 424V441" stroke="white" stroke-width="1.5" stroke-linecap="square" stroke-linejoin="round"/>
<path d="M737.167 281V285.5C737.167 286.121 737.689 286.625 738.333 286.625H743M737.367 281H731.333C730.045 281 729 282.007 729 283.25V296.75C729 297.993 730.045 299 731.333 299H740.667C741.955 299 743 297.993 743 296.75V286.432C743 285.835 742.754 285.263 742.317 284.841L739.017 281.659C738.579 281.237 737.986 281 737.367 281Z" stroke="white" stroke-width="1.5"/>
<rect x="177.5" y="501.5" width="103" height="55" rx="4.5" stroke="#9747FF" stroke-dasharray="10 5"/>
<rect x="245.75" y="521.75" width="14.5" height="14.5" rx="1.25" fill="white" stroke="#CDD7E4" stroke-width="1.5"/>
<rect x="197.75" y="521.75" width="14.5" height="14.5" rx="1.25" fill="white" stroke="#246BEB" stroke-width="1.5"/>
<path d="M209 526L203.034 532L201 529.955" stroke="#246BEB" stroke-width="1.5" stroke-linecap="square" stroke-linejoin="round"/>
<path d="M208.375 144.999H205M205 144.999H201.625M205 144.999V148.374M205 144.999L205 141.624M214 145C214 149.971 209.971 154 205 154C200.029 154 196 149.971 196 145C196 140.029 200.029 136 205 136C209.971 136 214 140.029 214 145Z" stroke="white" stroke-width="1.5" stroke-linecap="square"/>
<defs>
<clipPath id="clip0_481_82014">
<rect width="24" height="24" fill="white" transform="translate(385 517)"/>
</clipPath>
<clipPath id="clip1_481_82014">
<rect width="24" height="24" fill="white" transform="translate(433 517)"/>
</clipPath>
</defs>
</svg>
