<svg width="25" height="25" viewBox="0 0 25 25" fill="none" xmlns="http://www.w3.org/2000/svg">
<path d="M11.1074 6.92667L13.1472 4.88689C14.0761 3.98772 15.3211 3.48967 16.6139 3.50016C17.9066 3.51066 19.1434 4.02886 20.0576 4.94299C20.9717 5.85713 21.4899 7.09394 21.5004 8.38669C21.5109 9.67943 21.0128 10.9245 20.1137 11.8534L18.0739 13.8931" stroke="#FF1493" stroke-width="1.5" stroke-linecap="square" stroke-linejoin="round"/>
<path d="M13.8931 18.0729L11.8534 20.1127C10.9245 21.0119 9.67943 21.5099 8.38669 21.4994C7.09394 21.4889 5.85713 20.9707 4.94299 20.0566C4.02886 19.1424 3.51066 17.9056 3.50016 16.6129C3.48967 15.3202 3.98772 14.0751 4.88689 13.1462L6.92667 11.1064" stroke="#FF1493" stroke-width="1.5" stroke-linecap="square" stroke-linejoin="round"/>
<path d="M15.2861 9.71338L9.71289 15.2865" stroke="#FF1493" stroke-width="1.5" stroke-linecap="square" stroke-linejoin="round"/>
</svg>
