<svg width="18" height="18" viewBox="0 0 18 18" fill="none" xmlns="http://www.w3.org/2000/svg">
<g clip-path="url(#clip0_776_118890)">
<path d="M3.0085 8.47349L8.67067 2.80215C9.41297 2.14247 10.3793 1.79132 11.3719 1.82054C12.3646 1.84976 13.3085 2.25714 14.0107 2.95935C14.7129 3.66156 15.1203 4.60553 15.1495 5.59817C15.1788 6.59081 14.8276 7.55711 14.1679 8.29941L6.83826 15.6291C6.40065 16.0448 5.82013 16.2765 5.21657 16.2765C4.613 16.2765 4.03248 16.0448 3.59488 15.6291C3.16852 15.197 2.92947 14.6144 2.92947 14.0074C2.92947 13.4004 3.16852 12.8178 3.59488 12.3857L9.91672 6.07302C9.97928 6.00564 10.0545 5.95125 10.1381 5.91294C10.2217 5.87463 10.312 5.85317 10.4039 5.84976C10.5894 5.84289 10.7701 5.91001 10.9062 6.03637C10.9736 6.09894 11.028 6.17416 11.0663 6.25775C11.1046 6.34134 11.1261 6.43165 11.1295 6.52353C11.1364 6.7091 11.0692 6.8898 10.9429 7.02588L6.24272 11.7169C6.07019 11.8894 5.97327 12.1234 5.97327 12.3674C5.97327 12.6114 6.07019 12.8454 6.24272 13.0179C6.41525 13.1904 6.64924 13.2873 6.89323 13.2873C7.13722 13.2873 7.37121 13.1904 7.54374 13.0179L12.2439 8.30857C12.4791 8.07521 12.6657 7.7976 12.7931 7.49175C12.9205 7.1859 12.9861 6.85786 12.9861 6.52654C12.9861 6.19523 12.9205 5.86719 12.7931 5.56134C12.6657 5.25549 12.4791 4.97788 12.2439 4.74452C11.7635 4.28688 11.1254 4.03162 10.4619 4.03162C9.79835 4.03162 9.16027 4.28688 8.67984 4.74452L2.36716 11.0664C1.63888 11.8479 1.2424 12.8817 1.26125 13.9498C1.28009 15.0179 1.71279 16.037 2.46819 16.7924C3.22358 17.5478 4.24269 17.9805 5.31081 17.9994C6.37893 18.0182 7.41267 17.6217 8.19424 16.8934L15.5239 9.56378C16.5123 8.46906 17.0402 7.03518 16.9976 5.56088C16.955 4.08659 16.3452 2.68559 15.2952 1.64978C14.2452 0.61397 12.8361 0.0232407 11.3613 0.000670894C9.88658 -0.0218989 8.46001 0.525432 7.37882 1.52862L1.70749 7.19079C1.62206 7.27622 1.5543 7.37764 1.50807 7.48925C1.46183 7.60086 1.43804 7.72049 1.43804 7.8413C1.43804 7.96211 1.46183 8.08174 1.50807 8.19336C1.5543 8.30497 1.62206 8.40639 1.70749 8.49181C1.79291 8.57724 1.89433 8.645 2.00594 8.69123C2.11756 8.73746 2.23718 8.76126 2.35799 8.76126C2.4788 8.76126 2.59843 8.73746 2.71005 8.69123C2.82166 8.645 2.92308 8.57724 3.0085 8.49181L3.0085 8.47349Z" fill="#3B82F6" fill-opacity="0.7"/>
</g>
<defs>
<clipPath id="clip0_776_118890">
<rect width="18" height="18" fill="white"/>
</clipPath>
</defs>
</svg>
