<?xml version="1.0" encoding="utf-8"?>
<!-- Generator: Adobe Illustrator 28.0.0, SVG Export Plug-In . SVG Version: 6.00 Build 0)  -->
<svg version="1.1" id="Layer_1" xmlns="http://www.w3.org/2000/svg" xmlns:xlink="http://www.w3.org/1999/xlink" x="0px" y="0px"
	 viewBox="0 0 24 24" style="enable-background:new 0 0 24 24;" xml:space="preserve">
<style type="text/css">
	.st0{fill:none;}
	.st1{fill:#FFFFFF;}
	.st2{fill:#99B0CB;}
</style>
<rect class="st0" width="24" height="24"/>
<g>
	<path class="st1" d="M0,0v24h24V0H0z M21.37,10.57l-3.78,3.68l0.89,5.2c0.18,1.02-0.9,1.8-1.82,1.32L12,18.32l-4.67,2.45
		c-0.92,0.48-1.99-0.3-1.82-1.32l0.89-5.2l-3.78-3.68C1.89,9.85,2.3,8.59,3.32,8.44l5.22-0.76l2.33-4.73c0.46-0.93,1.79-0.93,2.25,0
		l2.33,4.73l5.22,0.76C21.7,8.59,22.11,9.85,21.37,10.57z"/>
	<path class="st2" d="M20.68,8.44l-5.22-0.76l-2.33-4.73c-0.46-0.93-1.79-0.93-2.25,0L8.54,7.68L3.32,8.44
		C2.3,8.59,1.89,9.85,2.63,10.57l3.78,3.68l-0.89,5.2c-0.18,1.02,0.9,1.8,1.82,1.32L12,18.32l4.67,2.45
		c0.92,0.48,1.99-0.3,1.82-1.32l-0.89-5.2l3.78-3.68C22.11,9.85,21.7,8.59,20.68,8.44z M16.46,13.27c-0.3,0.29-0.43,0.7-0.36,1.11
		l0.83,4.83l-4.34-2.28c-0.37-0.19-0.8-0.19-1.17,0l-4.34,2.28l0.83-4.83c0.07-0.41-0.07-0.82-0.36-1.11L4.03,9.85l4.85-0.71
		c0.41-0.06,0.76-0.32,0.94-0.69L12,4.06l2.17,4.4c0.18,0.37,0.54,0.63,0.94,0.69l4.85,0.71L16.46,13.27z"/>
</g>
</svg>
