<svg width="18" height="18" viewBox="0 0 18 18" fill="none" xmlns="http://www.w3.org/2000/svg">
<path d="M3 5.36523H15.15" stroke="white" stroke-linecap="square" stroke-linejoin="round"/>
<path d="M4.51855 5.36523H13.6311V14.7114C13.6311 14.9868 13.5243 15.251 13.3345 15.4457C13.1446 15.6404 12.8871 15.7499 12.6186 15.7499H5.53105C5.26252 15.7499 5.00499 15.6404 4.81511 15.4457C4.62523 15.251 4.51855 14.9868 4.51855 14.7114V5.36523Z" stroke="white" stroke-linecap="round"/>
<path d="M6.54395 5.36538V4.84615C6.54395 4.15761 6.81063 3.49726 7.28533 3.01039C7.76003 2.52352 8.40387 2.25 9.0752 2.25C9.74652 2.25 10.3904 2.52352 10.8651 3.01039C11.3398 3.49726 11.6064 4.15761 11.6064 4.84615V5.36538" stroke="white" stroke-linecap="round" stroke-linejoin="round"/>
<path d="M7.55615 8.48242V12.6379" stroke="white" stroke-linecap="square" stroke-linejoin="round"/>
<path d="M10.5938 8.48242V12.6379" stroke="white" stroke-linecap="square" stroke-linejoin="round"/>
</svg>
