<svg width="24" height="24" viewBox="0 0 24 24" fill="none" xmlns="http://www.w3.org/2000/svg">
<path d="M12.0006 13.3847C13.9124 13.3847 15.4621 11.835 15.4621 9.92321C15.4621 8.01146 13.9124 6.46167 12.0006 6.46167C10.0888 6.46167 8.53906 8.01146 8.53906 9.92321C8.53906 11.835 10.0888 13.3847 12.0006 13.3847Z" stroke="#1D1D1D" stroke-width="1.5" stroke-linecap="round"/>
<path d="M6.08826 18.7846C6.70613 17.7704 7.57452 16.9321 8.60993 16.3506C9.64535 15.7689 10.813 15.4634 12.0006 15.4634C13.1882 15.4634 14.3558 15.7689 15.3912 16.3506C16.4267 16.9321 17.2949 17.7704 17.9129 18.7846" stroke="#1D1D1D" stroke-width="1.5" stroke-linecap="round"/>
<path d="M12.0002 21.0002C16.9709 21.0002 21.0002 16.9709 21.0002 12.0002C21.0002 7.02968 16.9709 3.00024 12.0002 3.00024C7.02968 3.00024 3.00024 7.02968 3.00024 12.0002C3.00024 16.9709 7.02968 21.0002 12.0002 21.0002Z" stroke="#1D1D1D" stroke-width="1.5" stroke-linecap="round"/>
</svg>
