<svg width="18" height="19" viewBox="0 0 18 19" fill="none" xmlns="http://www.w3.org/2000/svg">
<path d="M9 16.25C12.728 16.25 15.75 13.228 15.75 9.5C15.75 5.77208 12.728 2.75 9 2.75C5.27208 2.75 2.25 5.77208 2.25 9.5C2.25 13.228 5.27208 16.25 9 16.25Z" stroke="#99B0CB" stroke-linecap="round" stroke-linejoin="round"/>
<path d="M5.49436 9.79194C5.33298 9.79194 5.20215 9.66111 5.20215 9.49973C5.20215 9.33835 5.33298 9.20752 5.49436 9.20752" stroke="#99B0CB" stroke-linecap="round" stroke-linejoin="round"/>
<path d="M5.49414 9.79194C5.65552 9.79194 5.78635 9.66111 5.78635 9.49973C5.78635 9.33835 5.65552 9.20752 5.49414 9.20752" stroke="#99B0CB" stroke-linecap="round" stroke-linejoin="round"/>
<path d="M9.00022 9.7923C8.83884 9.7923 8.70801 9.66147 8.70801 9.50009C8.70801 9.33871 8.83884 9.20789 9.00022 9.20789" stroke="#99B0CB" stroke-linecap="round" stroke-linejoin="round"/>
<path d="M9 9.79242C9.16138 9.79242 9.29221 9.6616 9.29221 9.50022C9.29221 9.33884 9.16138 9.20801 9 9.20801" stroke="#99B0CB" stroke-linecap="round" stroke-linejoin="round"/>
<path d="M12.5071 9.79181C12.3457 9.79181 12.2148 9.66099 12.2148 9.49961C12.2148 9.33822 12.3457 9.2074 12.5071 9.2074" stroke="#99B0CB" stroke-linecap="round" stroke-linejoin="round"/>
<path d="M12.5068 9.79181C12.6683 9.79181 12.799 9.66099 12.799 9.49961C12.799 9.33822 12.6683 9.2074 12.5068 9.2074" stroke="#99B0CB" stroke-linecap="round" stroke-linejoin="round"/>
</svg>
