<svg width="48" height="49" viewBox="0 0 48 49" fill="none" xmlns="http://www.w3.org/2000/svg">
<path d="M27.0514 4.09966C26.7637 3.53805 26.3265 3.06674 25.7881 2.73763C25.2497 2.40852 24.631 2.23438 24 2.23438C23.3689 2.23438 22.7501 2.40852 22.2118 2.73763C21.6734 3.06674 21.2362 3.53805 20.9485 4.09966L2.09138 41.8139C1.82837 42.3358 1.70315 42.9162 1.72761 43.5005C1.75207 44.0843 1.9254 44.6521 2.23114 45.1503C2.53687 45.6485 2.96486 46.0602 3.47448 46.3462C3.98407 46.6325 4.55835 46.7837 5.14282 46.7854H42.857C43.4416 46.7837 44.0159 46.6325 44.5253 46.3462C45.0352 46.0602 45.4631 45.6485 45.7689 45.1503C46.0744 44.6521 46.2479 44.0843 46.2722 43.5005C46.2969 42.9162 46.1714 42.3358 45.9084 41.8139L27.0514 4.09966Z" stroke="#95A3BA" stroke-width="2" stroke-linecap="round" stroke-linejoin="round"/>
<path d="M24 17.6428V28.7857" stroke="#95A3BA" stroke-width="2" stroke-linecap="round" stroke-linejoin="round"/>
<path d="M23.9997 38.2143C23.5263 38.2143 23.1426 37.8306 23.1426 37.3571C23.1426 36.8837 23.5263 36.5 23.9997 36.5" stroke="#95A3BA" stroke-width="2" stroke-linecap="round" stroke-linejoin="round"/>
<path d="M24 38.2143C24.4734 38.2143 24.8571 37.8306 24.8571 37.3571C24.8571 36.8837 24.4734 36.5 24 36.5" stroke="#95A3BA" stroke-width="2" stroke-linecap="round" stroke-linejoin="round"/>
</svg>
