<svg width="44" height="45" viewBox="0 0 44 45" fill="none" xmlns="http://www.w3.org/2000/svg">
<path d="M7.62472 30.6896C6.39076 29.9092 5.35829 28.8487 4.61121 27.5943C3.86412 26.3399 3.42348 24.927 3.32509 23.4703C3.24338 22.2548 3.40189 21.0351 3.79159 19.8808C4.18128 18.7266 4.79452 17.6604 5.59629 16.7432C6.39805 15.8259 7.37264 15.0756 8.4644 14.5351C9.55616 13.9945 10.7437 13.6743 11.9592 13.5927C12.0852 13.5961 12.2095 13.5634 12.3176 13.4986C12.4256 13.4337 12.513 13.3394 12.5693 13.2267C13.4082 10.7977 15.0542 8.72961 17.233 7.36715C19.4119 6.00469 21.9919 5.43017 24.543 5.73937C27.0941 6.04858 29.4621 7.22281 31.2524 9.06635C33.0426 10.9099 34.1469 13.3113 34.3812 15.8704C34.401 16.005 34.4588 16.1312 34.5478 16.2342C34.6368 16.3371 34.7534 16.4125 34.8838 16.4514C36.4643 16.8236 37.8924 17.6719 38.9753 18.8818C40.0582 20.0916 40.7437 21.6046 40.9391 23.2165C41.1346 24.8284 40.8306 26.4614 40.0683 27.895C39.3059 29.3286 38.122 30.4937 36.6763 31.2329" stroke="white" stroke-width="3" stroke-linecap="square" stroke-linejoin="round"/>
<path d="M25.3694 24.5425L18.9258 27.7643" stroke="white" stroke-width="3" stroke-linecap="square" stroke-linejoin="round"/>
<path d="M25.0552 23.2465C25.0552 24.017 25.3613 24.7559 25.9061 25.3007C26.4509 25.8455 27.1898 26.1516 27.9603 26.1516C28.7308 26.1516 29.4698 25.8455 30.0146 25.3007C30.5594 24.7559 30.8655 24.017 30.8655 23.2465C30.8655 22.476 30.5594 21.737 30.0146 21.1922C29.4698 20.6474 28.7308 20.3413 27.9603 20.3413C27.1898 20.3413 26.4509 20.6474 25.9061 21.1922C25.3613 21.737 25.0552 22.476 25.0552 23.2465Z" stroke="white" stroke-width="3" stroke-linecap="square" stroke-linejoin="round"/>
<path d="M13.436 29.057C13.436 29.8275 13.7421 30.5664 14.2869 31.1113C14.8318 31.6561 15.5707 31.9622 16.3412 31.9622C17.1117 31.9622 17.8506 31.6561 18.3955 31.1113C18.9403 30.5664 19.2464 29.8275 19.2464 29.057C19.2464 28.2865 18.9403 27.5476 18.3955 27.0028C17.8506 26.4579 17.1117 26.1519 16.3412 26.1519C15.5707 26.1519 14.8318 26.4579 14.2869 27.0028C13.7421 27.5476 13.436 28.2865 13.436 29.057Z" stroke="white" stroke-width="3" stroke-linecap="square" stroke-linejoin="round"/>
<path d="M25.0552 34.8676C25.0552 35.6381 25.3613 36.377 25.9061 36.9218C26.4509 37.4666 27.1898 37.7727 27.9603 37.7727C28.7308 37.7727 29.4698 37.4666 30.0146 36.9218C30.5594 36.377 30.8655 35.6381 30.8655 34.8676C30.8655 34.0971 30.5594 33.3581 30.0146 32.8133C29.4698 32.2685 28.7308 31.9624 27.9603 31.9624C27.1898 31.9624 26.4509 32.2685 25.9061 32.8133C25.3613 33.3581 25.0552 34.0971 25.0552 34.8676Z" stroke="white" stroke-width="3" stroke-linecap="square" stroke-linejoin="round"/>
<path d="M18.9258 30.3496L25.3694 33.5714" stroke="white" stroke-width="3" stroke-linecap="square" stroke-linejoin="round"/>
</svg>
