<svg width="48" height="49" viewBox="0 0 48 49" fill="none" xmlns="http://www.w3.org/2000/svg">
<path d="M8.02113 33.4586C6.66377 32.6002 5.52806 31.4337 4.70626 30.0539C3.88446 28.674 3.39976 27.1198 3.29153 25.5174C3.20165 24.1803 3.37602 22.8387 3.80468 21.569C4.23335 20.2993 4.90791 19.1265 5.78985 18.1176C6.67179 17.1086 7.74384 16.2833 8.94478 15.6887C10.1457 15.0941 11.452 14.7418 12.7891 14.6521C12.9277 14.6558 13.0644 14.6198 13.1833 14.5485C13.3021 14.4772 13.3982 14.3735 13.4602 14.2494C14.3829 11.5776 16.1936 9.30267 18.5903 7.80396C20.987 6.30525 23.825 5.67329 26.6312 6.01341C29.4374 6.35353 32.0422 7.64519 34.0115 9.67308C35.9808 11.701 37.1956 14.3426 37.4533 17.1575C37.475 17.3056 37.5386 17.4445 37.6365 17.5577C37.7345 17.6709 37.8627 17.7538 38.0061 17.7966C39.7446 18.2061 41.3156 19.1392 42.5067 20.47C43.6979 21.8009 44.452 23.4652 44.667 25.2383C44.882 27.0113 44.5476 28.8077 43.709 30.3846C42.8705 31.9616 41.5681 33.2431 39.9779 34.0562" stroke="#FFB724" stroke-width="3" stroke-linecap="square" stroke-linejoin="round"/>
<path d="M27.5402 26.6968L20.4521 30.2408" stroke="#FFB724" stroke-width="3" stroke-linecap="square" stroke-linejoin="round"/>
<path d="M27.1948 25.2711C27.1948 26.1187 27.5315 26.9315 28.1308 27.5308C28.7301 28.1301 29.543 28.4668 30.3905 28.4668C31.238 28.4668 32.0509 28.1301 32.6502 27.5308C33.2495 26.9315 33.5862 26.1187 33.5862 25.2711C33.5862 24.4236 33.2495 23.6107 32.6502 23.0114C32.0509 22.4121 31.238 22.0754 30.3905 22.0754C29.543 22.0754 28.7301 22.4121 28.1308 23.0114C27.5315 23.6107 27.1948 24.4236 27.1948 25.2711Z" stroke="#FFB724" stroke-width="3" stroke-linecap="square" stroke-linejoin="round"/>
<path d="M14.4136 31.6627C14.4136 32.5103 14.7503 33.3231 15.3496 33.9224C15.9489 34.5217 16.7617 34.8584 17.6092 34.8584C18.4568 34.8584 19.2696 34.5217 19.8689 33.9224C20.4682 33.3231 20.8049 32.5103 20.8049 31.6627C20.8049 30.8152 20.4682 30.0023 19.8689 29.403C19.2696 28.8037 18.4568 28.467 17.6092 28.467C16.7617 28.467 15.9489 28.8037 15.3496 29.403C14.7503 30.0023 14.4136 30.8152 14.4136 31.6627Z" stroke="#FFB724" stroke-width="3" stroke-linecap="square" stroke-linejoin="round"/>
<path d="M27.1948 38.0543C27.1948 38.9019 27.5315 39.7147 28.1308 40.314C28.7301 40.9133 29.543 41.25 30.3905 41.25C31.238 41.25 32.0509 40.9133 32.6502 40.314C33.2495 39.7147 33.5862 38.9019 33.5862 38.0543C33.5862 37.2068 33.2495 36.3939 32.6502 35.7946C32.0509 35.1953 31.238 34.8586 30.3905 34.8586C29.543 34.8586 28.7301 35.1953 28.1308 35.7946C27.5315 36.3939 27.1948 37.2068 27.1948 38.0543Z" stroke="#FFB724" stroke-width="3" stroke-linecap="square" stroke-linejoin="round"/>
<path d="M20.4521 33.0847L27.5402 36.6287" stroke="#FFB724" stroke-width="3" stroke-linecap="square" stroke-linejoin="round"/>
</svg>
