<svg width="44" height="45" viewBox="0 0 44 45" fill="none" xmlns="http://www.w3.org/2000/svg">
<path d="M21.2923 13.773V18.273C21.2923 19.1014 21.9756 19.773 22.8186 19.773H27.3974M30.45 7.77295H19.7656C18.0797 7.77295 16.7131 9.11609 16.713 10.7729V13.773M30.45 7.77295H31.3015C31.7313 7.77295 32.1404 7.95087 32.4366 8.25705C32.8816 8.71717 33.5865 9.42563 34.2658 10.023C34.7981 10.4911 35.6346 11.3313 36.1354 11.8419C36.4063 12.118 36.5552 12.4867 36.5552 12.8702L36.5552 13.773M30.45 7.77295V12.273C30.45 13.1014 31.1334 13.773 31.9763 13.773H36.5552M36.5552 13.773L36.5548 28.773C36.5547 30.4299 35.188 31.773 33.5022 31.7729H27.397M25.108 16.023C24.4287 15.4256 23.7238 14.7172 23.2788 14.257C22.9827 13.9509 22.5736 13.773 22.1437 13.773H10.6079C8.92199 13.773 7.5553 15.1161 7.55529 16.7729L7.55518 34.7729C7.55516 36.4297 8.92185 37.7729 10.6077 37.7729L24.3444 37.7729C26.0303 37.773 27.397 36.4299 27.397 34.773L27.3974 18.8702C27.3974 18.4867 27.2486 18.118 26.9777 17.8419C26.4768 17.3313 25.6404 16.4911 25.108 16.023Z" stroke="white" stroke-width="3" stroke-linecap="square" stroke-linejoin="round"/>
</svg>
