<svg width="49" height="49" viewBox="0 0 49 49" fill="none" xmlns="http://www.w3.org/2000/svg">
<path d="M24.0706 15.25V19.75C24.0706 20.5784 24.7539 21.25 25.5969 21.25H30.1758M33.2283 9.25H22.5439C20.8581 9.25 19.4914 10.5931 19.4914 12.25V15.25M33.2283 9.25H34.0798C34.5096 9.25 34.9188 9.42792 35.2149 9.7341C35.6599 10.1942 36.3648 10.9027 37.0441 11.5C37.5765 11.9681 38.4129 12.8083 38.9138 13.3189C39.1846 13.595 39.3335 13.9637 39.3335 14.3473L39.3335 15.25M33.2283 9.25V13.75C33.2283 14.5784 33.9117 15.25 34.7546 15.25H39.3335M39.3335 15.25L39.3331 30.2501C39.3331 31.9069 37.9664 33.25 36.2805 33.25H30.1753M27.8863 17.5C27.207 16.9027 26.5021 16.1942 26.0571 15.7341C25.761 15.4279 25.3519 15.25 24.922 15.25H13.3862C11.7003 15.25 10.3336 16.5931 10.3336 18.25L10.3335 36.2499C10.3335 37.9068 11.7002 39.2499 13.3861 39.2499L27.1227 39.25C28.8086 39.25 30.1753 37.9069 30.1753 36.2501L30.1757 20.3473C30.1758 19.9637 30.0269 19.595 29.756 19.3189C29.2551 18.8083 28.4187 17.9681 27.8863 17.5Z" stroke="#318DC7" stroke-width="3" stroke-linecap="square" stroke-linejoin="round"/>
</svg>
