<svg width="49" height="49" viewBox="0 0 49 49" fill="none" xmlns="http://www.w3.org/2000/svg">
<path d="M39.8247 21.2184V14.1341C39.8247 13.5819 39.377 13.1341 38.8247 13.1341H24.0705C23.8053 13.1341 23.5509 13.0288 23.3634 12.8413L19.9071 9.38493C19.7195 9.1974 19.4652 9.09204 19.1999 9.09204H6.4668C5.91451 9.09204 5.4668 9.53976 5.4668 10.092V38.4078C5.4668 38.9601 5.91451 39.4078 6.4668 39.4078H10.53C11.0822 39.4078 11.53 38.9601 11.53 38.4078V37.5681C11.53 37.4482 11.5515 37.3293 11.5936 37.217L17.3498 21.8672C17.4961 21.4769 17.8693 21.2184 18.2861 21.2184H42.4794C43.1619 21.2184 43.6439 21.8871 43.428 22.5346L38.0316 38.7241C37.8954 39.1324 37.5133 39.4078 37.0829 39.4078H9.5089" stroke="#5917B8" stroke-width="3" stroke-linecap="round" stroke-linejoin="round"/>
</svg>
