<svg width="49" height="49" viewBox="0 0 49 49" fill="none" xmlns="http://www.w3.org/2000/svg">
<path d="M21.3247 13.1033L25.4043 9.02378C27.262 7.22543 29.7521 6.22933 32.3376 6.25033C34.9231 6.27132 37.3967 7.30771 39.225 9.13598C41.0533 10.9643 42.0897 13.4379 42.1106 16.0234C42.1316 18.6089 41.1355 21.099 39.3372 22.9567L35.2576 27.0363" stroke="#CC1076" stroke-width="3" stroke-linecap="square" stroke-linejoin="round"/>
<path d="M26.8971 35.3956L22.8175 39.4751C20.9598 41.2735 18.4697 42.2696 15.8842 42.2486C13.2987 42.2276 10.8251 41.1912 8.99682 39.3629C7.16855 37.5347 6.13216 35.061 6.11116 32.4755C6.09017 29.8901 7.08627 27.3999 8.88462 25.5422L12.9642 21.4626" stroke="#CC1076" stroke-width="3" stroke-linecap="square" stroke-linejoin="round"/>
<path d="M29.683 18.6768L18.5366 29.8231" stroke="#CC1076" stroke-width="3" stroke-linecap="square" stroke-linejoin="round"/>
</svg>
