<svg width="45" height="44" viewBox="0 0 45 44" fill="none" xmlns="http://www.w3.org/2000/svg">
<path d="M19.7085 11.7303L23.4172 8.02162C25.106 6.38676 27.3698 5.48121 29.7202 5.5003C32.0707 5.51938 34.3194 6.46156 35.9815 8.12362C37.6435 9.78569 38.5857 12.0344 38.6048 14.3849C38.6239 16.7353 37.7183 18.9991 36.0835 20.6879L32.3748 24.3966" stroke="white" stroke-width="3" stroke-linecap="square" stroke-linejoin="round"/>
<path d="M24.774 31.9959L21.0654 35.7046C19.3765 37.3394 17.1128 38.245 14.7623 38.2259C12.4119 38.2068 10.1631 37.2646 8.50106 35.6026C6.839 33.9405 5.89682 31.6917 5.87774 29.3413C5.85865 26.9909 6.7642 24.7271 8.39906 23.0383L12.1078 19.3296" stroke="white" stroke-width="3" stroke-linecap="square" stroke-linejoin="round"/>
<path d="M27.3074 16.7969L17.1743 26.9299" stroke="white" stroke-width="3" stroke-linecap="square" stroke-linejoin="round"/>
</svg>
