<svg width="48" height="49" viewBox="0 0 48 49" fill="none" xmlns="http://www.w3.org/2000/svg">
<path d="M17.3682 26.934C17.7722 26.126 18.0002 25.214 18.0002 24.25C18.0002 23.286 17.7722 22.374 17.3682 21.566M17.3682 26.934C16.7636 28.1428 15.7686 29.112 14.5443 29.6847C13.3201 30.2574 11.9384 30.4 10.623 30.0894C9.30767 29.7788 8.1357 29.0332 7.29698 27.9733C6.45827 26.9135 6.00195 25.6015 6.00195 24.25C6.00195 22.8984 6.45827 21.5865 7.29698 20.5266C8.1357 19.4668 9.30767 18.7212 10.623 18.4106C11.9384 18.1 13.3201 18.2426 14.5443 18.8153C15.7686 19.388 16.7636 20.3572 17.3682 21.566M17.3682 26.934L30.6322 33.566M17.3682 21.566L30.6322 14.934M30.6322 33.566C29.9203 34.9897 29.8032 36.6378 30.3065 38.1479C30.8099 39.6579 31.8925 40.9061 33.3162 41.618C34.7398 42.3298 36.388 42.447 37.898 41.9436C39.4081 41.4403 40.6563 40.3577 41.3682 38.934C42.08 37.5103 42.1971 35.8622 41.6938 34.3521C41.1904 32.8421 40.1078 31.5938 38.6842 30.882C37.9792 30.5295 37.2118 30.3193 36.4256 30.2635C35.6394 30.2076 34.85 30.3071 34.1023 30.5564C32.5922 31.0597 31.344 32.1423 30.6322 33.566ZM30.6322 14.934C30.9846 15.6388 31.4725 16.2673 32.0678 16.7835C32.6632 17.2998 33.3544 17.6938 34.102 17.9429C34.8496 18.192 35.6389 18.2915 36.425 18.2356C37.211 18.1796 37.9784 17.9695 38.6832 17.617C39.388 17.2645 40.0164 16.7767 40.5327 16.1813C41.049 15.586 41.4429 14.8948 41.6921 14.1472C41.9412 13.3995 42.0407 12.6102 41.9847 11.8242C41.9288 11.0381 41.7186 10.2708 41.3662 9.56598C40.6543 8.14257 39.4062 7.06023 37.8963 6.55707C36.3865 6.05391 34.7386 6.17114 33.3152 6.88298C31.8917 7.59483 30.8094 8.84296 30.3062 10.3528C29.8031 11.8627 29.9203 13.5106 30.6322 14.934Z" stroke="#A05107" stroke-width="3" stroke-linecap="round" stroke-linejoin="round"/>
</svg>
